SplineFontDB: 3.2
FontName: MLGamer's_monospace
FullName: MLGamer's monospace
FamilyName: MLGamer's monospace
Weight: Regular
Copyright: (C) Seriy MLGamer, 2020
UComments: "2020-11-17: Created with FontForge (http://fontforge.org)"
Version: 2.0
ItalicAngle: 0
UnderlinePosition: 0
UnderlineWidth: 0
Ascent: 24
Descent: 0
InvalidEm: 0
LayerCount: 2
Layer: 0 1 "Back" 1
Layer: 1 1 "Fore" 0
XUID: [1021 1004 -2098412171 30531]
StyleMap: 0x0040
FSType: 0
OS2Version: 0
OS2_WeightWidthSlopeOnly: 0
OS2_UseTypoMetrics: 1
CreationTime: 1605637523
ModificationTime: 1606990817
PfmFamily: 49
TTFWeight: 400
TTFWidth: 5
LineGap: 2
VLineGap: 0
OS2TypoAscent: 0
OS2TypoAOffset: 1
OS2TypoDescent: 0
OS2TypoDOffset: 1
OS2TypoLinegap: 2
OS2WinAscent: 0
OS2WinAOffset: 1
OS2WinDescent: 0
OS2WinDOffset: 1
HheadAscent: 0
HheadAOffset: 1
HheadDescent: 0
HheadDOffset: 1
OS2Vendor: 'PfEd'
MarkAttachClasses: 1
DEI: 91125
LangName: 1033
Encoding: UnicodeFull
UnicodeInterp: none
NameList: AGL For New Fonts
DisplaySize: -48
AntiAlias: 1
FitToEm: 0
WinInfo: 32 16 6
BeginPrivate: 0
EndPrivate
Grid
-11.0517578125 36 m 0
 -11.0517578125 -12 l 1024
EndSplineSet
TeXData: 1 0 0 524288 262144 174762 0 1048576 174762 783286 444596 497025 792723 393216 433062 380633 303038 157286 324010 404750 52429 2506097 1059062 262144
BeginChars: 1114112 164

StartChar: exclam
Encoding: 33 33 1
Width: 12
Flags: W
LayerCount: 2
Fore
SplineSet
4 20 m 25,0,-1
 6 20 l 25,1,-1
 6 6 l 25,2,-1
 4 6 l 25,3,-1
 4 20 l 25,0,-1
4 4 m 25,4,-1
 6 4 l 25,5,-1
 6 2 l 25,6,-1
 4 2 l 25,7,-1
 4 4 l 25,4,-1
EndSplineSet
EndChar

StartChar: quotedbl
Encoding: 34 34 2
Width: 12
Flags: W
LayerCount: 2
Fore
SplineSet
6 20 m 25,0,-1
 8 20 l 25,1,-1
 8 14 l 25,2,-1
 6 14 l 25,3,-1
 6 20 l 25,0,-1
2 20 m 25,4,-1
 4 20 l 25,5,-1
 4 14 l 25,6,-1
 2 14 l 25,7,-1
 2 20 l 25,4,-1
EndSplineSet
EndChar

StartChar: numbersign
Encoding: 35 35 3
Width: 12
Flags: W
LayerCount: 2
Fore
SplineSet
0 9 m 25,0,-1
 10 9 l 25,1,-1
 10 7 l 25,2,-1
 0 7 l 25,3,-1
 0 9 l 25,0,-1
0 15 m 25,4,-1
 10 15 l 25,5,-1
 10 13 l 25,6,-1
 0 13 l 25,7,-1
 0 15 l 25,4,-1
7 20 m 25,8,-1
 9 20 l 25,9,-1
 7 2 l 25,10,-1
 5 2 l 25,11,-1
 7 20 l 25,8,-1
3 20 m 25,12,-1
 5 20 l 25,13,-1
 3 2 l 25,14,-1
 1 2 l 25,15,-1
 3 20 l 25,12,-1
EndSplineSet
EndChar

StartChar: dollar
Encoding: 36 36 4
Width: 12
Flags: W
LayerCount: 2
Fore
SplineSet
4 24 m 25,0,-1
 6 24 l 25,1,-1
 6 -2 l 25,2,-1
 4 -2 l 25,3,-1
 4 24 l 25,0,-1
8 20 m 25,4,-1
 10 18 l 25,5,-1
 10 14 l 25,6,-1
 8 14 l 25,7,-1
 8 17 l 25,8,-1
 7 18 l 25,9,-1
 3 18 l 25,10,-1
 2 17 l 25,11,-1
 2 13 l 25,12,-1
 3 12 l 25,13,-1
 8 12 l 25,14,-1
 10 10 l 25,15,-1
 10 4 l 25,16,-1
 8 2 l 25,17,-1
 2 2 l 25,18,-1
 0 4 l 25,19,-1
 0 8 l 25,20,-1
 2 8 l 25,21,-1
 2 5 l 25,22,-1
 3 4 l 25,23,-1
 7 4 l 25,24,-1
 8 5 l 25,25,-1
 8 9 l 25,26,-1
 7 10 l 25,27,-1
 2 10 l 25,28,-1
 0 12 l 25,29,-1
 0 18 l 25,30,-1
 2 20 l 25,31,-1
 8 20 l 25,4,-1
EndSplineSet
EndChar

StartChar: percent
Encoding: 37 37 5
Width: 12
Flags: W
LayerCount: 2
Fore
SplineSet
9 5 m 25,0,-1
 7 5 l 25,1,-1
 7 3 l 25,2,-1
 9 3 l 25,3,-1
 9 5 l 25,0,-1
7 6 m 25,4,-1
 9 6 l 25,5,-1
 10 5 l 25,6,-1
 10 3 l 25,7,-1
 9 2 l 25,8,-1
 7 2 l 25,9,-1
 6 3 l 25,10,-1
 6 5 l 25,11,-1
 7 6 l 25,4,-1
3 19 m 25,12,-1
 1 19 l 25,13,-1
 1 17 l 25,14,-1
 3 17 l 25,15,-1
 3 19 l 25,12,-1
1 20 m 25,16,-1
 3 20 l 25,17,-1
 4 19 l 25,18,-1
 4 17 l 25,19,-1
 3 16 l 25,20,-1
 1 16 l 25,21,-1
 0 17 l 25,22,-1
 0 19 l 25,23,-1
 1 20 l 25,16,-1
8 20 m 25,24,-1
 10 20 l 25,25,-1
 2 2 l 25,26,-1
 0 2 l 25,27,-1
 8 20 l 25,24,-1
EndSplineSet
EndChar

StartChar: ampersand
Encoding: 38 38 6
Width: 12
Flags: W
LayerCount: 2
Fore
SplineSet
4 18 m 25,0,-1
 3 18 l 25,1,-1
 2 17 l 25,2,-1
 2 15 l 25,3,-1
 3 14 l 25,4,-1
 4 14 l 25,5,-1
 5 15 l 25,6,-1
 5 17 l 25,7,-1
 4 18 l 25,0,-1
3 10 m 25,8,-1
 2 9 l 1,9,-1
 2 5 l 25,10,-1
 3 4 l 25,11,-1
 7 4 l 25,12,-1
 8 5 l 25,13,-1
 8 6 l 25,14,-1
 4 10 l 25,15,-1
 3 10 l 25,8,-1
2 20 m 25,16,-1
 5 20 l 25,17,-1
 7 18 l 25,18,-1
 7 14 l 25,19,-1
 5 12 l 25,20,-1
 8 9 l 25,21,-1
 8 12 l 25,22,-1
 10 12 l 25,23,-1
 10 7 l 25,24,-1
 12 5 l 25,25,-1
 12 4 l 25,26,-1
 10 4 l 25,27,-1
 8 2 l 25,28,-1
 2 2 l 25,29,-1
 0 4 l 25,30,-1
 0 10 l 25,31,-1
 2 12 l 25,32,-1
 0 14 l 25,33,-1
 0 18 l 25,34,-1
 2 20 l 25,16,-1
EndSplineSet
EndChar

StartChar: quotesingle
Encoding: 39 39 7
Width: 12
Flags: W
LayerCount: 2
Fore
SplineSet
4 20 m 25,0,-1
 6 20 l 1,1,-1
 6 14 l 25,2,-1
 4 14 l 25,3,-1
 4 20 l 25,0,-1
EndSplineSet
EndChar

StartChar: parenleft
Encoding: 40 40 8
Width: 12
Flags: W
LayerCount: 2
Fore
SplineSet
6 20 m 1,0,-1
 8 20 l 1,1,-1
 6 18 l 1,2,-1
 4 14 l 1,3,-1
 4 8 l 1,4,-1
 6 4 l 1,5,-1
 8 2 l 1,6,-1
 6 2 l 1,7,-1
 4 4 l 1,8,-1
 2 8 l 1,9,-1
 2 14 l 1,10,-1
 4 18 l 1,11,-1
 6 20 l 1,0,-1
EndSplineSet
EndChar

StartChar: parenright
Encoding: 41 41 9
Width: 12
Flags: W
LayerCount: 2
Fore
SplineSet
4 20 m 1,0,-1
 6 18 l 1,1,-1
 8 14 l 1,2,-1
 8 8 l 1,3,-1
 6 4 l 1,4,-1
 4 2 l 1,5,-1
 2 2 l 1,6,-1
 4 4 l 1,7,-1
 6 8 l 1,8,-1
 6 14 l 1,9,-1
 4 18 l 1,10,-1
 2 20 l 1,11,-1
 4 20 l 1,0,-1
EndSplineSet
EndChar

StartChar: asterisk
Encoding: 42 42 10
Width: 12
Flags: W
LayerCount: 2
Fore
SplineSet
0 13 m 25,0,-1
 9 19 l 25,1,-1
 10 19 l 25,2,-1
 10 17 l 25,3,-1
 1 11 l 25,4,-1
 0 11 l 25,5,-1
 0 13 l 25,0,-1
0 19 m 25,6,-1
 1 19 l 25,7,-1
 10 13 l 25,8,-1
 10 11 l 25,9,-1
 9 11 l 25,10,-1
 0 17 l 25,11,-1
 0 19 l 25,6,-1
4 20 m 25,12,-1
 6 20 l 25,13,-1
 6 10 l 25,14,-1
 4 10 l 25,15,-1
 4 20 l 25,12,-1
EndSplineSet
EndChar

StartChar: plus
Encoding: 43 43 11
Width: 12
Flags: W
LayerCount: 2
Fore
SplineSet
4 16 m 25,0,-1
 6 16 l 25,1,-1
 6 12 l 25,2,-1
 10 12 l 25,3,-1
 10 10 l 25,4,-1
 6 10 l 25,5,-1
 6 6 l 25,6,-1
 4 6 l 25,7,-1
 4 10 l 25,8,-1
 0 10 l 25,9,-1
 0 12 l 25,10,-1
 4 12 l 25,11,-1
 4 16 l 25,0,-1
EndSplineSet
EndChar

StartChar: comma
Encoding: 44 44 12
Width: 12
Flags: W
LayerCount: 2
Fore
SplineSet
4 4 m 25,0,-1
 6 4 l 25,1,-1
 6 2 l 25,2,-1
 4 -2 l 25,3,-1
 2 -2 l 25,4,-1
 4 2 l 25,5,-1
 4 4 l 25,0,-1
EndSplineSet
EndChar

StartChar: hyphen
Encoding: 45 45 13
Width: 12
Flags: W
LayerCount: 2
Fore
SplineSet
0 12 m 29,0,-1
 10 12 l 29,1,-1
 10 10 l 29,2,-1
 0 10 l 29,3,-1
 0 12 l 29,0,-1
EndSplineSet
EndChar

StartChar: period
Encoding: 46 46 14
Width: 12
Flags: W
LayerCount: 2
Fore
SplineSet
4 4 m 25,0,-1
 6 4 l 25,1,-1
 6 2 l 25,2,-1
 4 2 l 25,3,-1
 4 4 l 25,0,-1
EndSplineSet
EndChar

StartChar: slash
Encoding: 47 47 15
Width: 12
Flags: W
LayerCount: 2
Fore
SplineSet
8 20 m 25,0,-1
 10 20 l 25,1,-1
 2 2 l 25,2,-1
 0 2 l 25,3,-1
 8 20 l 25,0,-1
EndSplineSet
EndChar

StartChar: zero
Encoding: 48 48 16
Width: 12
Flags: W
LayerCount: 2
Fore
SplineSet
4 12 m 25,0,-1
 6 12 l 25,1,-1
 6 10 l 25,2,-1
 4 10 l 25,3,-1
 4 12 l 25,0,-1
7 18 m 25,4,-1
 3 18 l 25,5,-1
 2 17 l 25,6,-1
 2 5 l 25,7,-1
 3 4 l 25,8,-1
 7 4 l 25,9,-1
 8 5 l 25,10,-1
 8 17 l 25,11,-1
 7 18 l 25,4,-1
2 20 m 25,12,-1
 8 20 l 25,13,-1
 10 18 l 25,14,-1
 10 4 l 25,15,-1
 8 2 l 25,16,-1
 2 2 l 25,17,-1
 0 4 l 25,18,-1
 0 18 l 25,19,-1
 2 20 l 25,12,-1
EndSplineSet
EndChar

StartChar: one
Encoding: 49 49 17
Width: 12
Flags: W
LayerCount: 2
Fore
SplineSet
4 20 m 25,0,-1
 6 20 l 25,1,-1
 6 2 l 25,2,-1
 4 2 l 25,3,-1
 4 17 l 1,4,-1
 2 15 l 25,5,-1
 0 15 l 25,6,-1
 0 16 l 25,7,-1
 4 20 l 25,0,-1
EndSplineSet
EndChar

StartChar: two
Encoding: 50 50 18
Width: 12
Flags: W
LayerCount: 2
Fore
SplineSet
2 20 m 25,0,-1
 8 20 l 25,1,-1
 10 18 l 25,2,-1
 10 12 l 25,3,-1
 2 4 l 25,4,-1
 10 4 l 25,5,-1
 10 2 l 25,6,-1
 0 2 l 25,7,-1
 0 5 l 25,8,-1
 8 13 l 25,9,-1
 8 17 l 25,10,-1
 7 18 l 25,11,-1
 3 18 l 25,12,-1
 2 17 l 25,13,-1
 2 14 l 25,14,-1
 0 14 l 25,15,-1
 0 18 l 25,16,-1
 2 20 l 25,0,-1
EndSplineSet
EndChar

StartChar: three
Encoding: 51 51 19
Width: 12
Flags: W
LayerCount: 2
Fore
SplineSet
2 20 m 25,0,-1
 8 20 l 25,1,-1
 10 18 l 25,2,-1
 10 12 l 25,3,-1
 9 11 l 25,4,-1
 10 10 l 25,5,-1
 10 4 l 25,6,-1
 8 2 l 25,7,-1
 2 2 l 25,8,-1
 0 4 l 25,9,-1
 0 8 l 25,10,-1
 2 8 l 25,11,-1
 2 5 l 25,12,-1
 3 4 l 25,13,-1
 7 4 l 25,14,-1
 8 5 l 25,15,-1
 8 9 l 25,16,-1
 7 10 l 25,17,-1
 4 10 l 25,18,-1
 4 12 l 25,19,-1
 7 12 l 25,20,-1
 8 13 l 25,21,-1
 8 17 l 25,22,-1
 7 18 l 25,23,-1
 3 18 l 25,24,-1
 2 17 l 25,25,-1
 2 14 l 25,26,-1
 0 14 l 25,27,-1
 0 18 l 25,28,-1
 2 20 l 25,0,-1
EndSplineSet
EndChar

StartChar: four
Encoding: 52 52 20
Width: 12
Flags: W
LayerCount: 2
Fore
SplineSet
6 16 m 25,0,-1
 2 8 l 25,1,-1
 6 8 l 25,2,-1
 6 16 l 25,0,-1
6 20 m 1,3,-1
 8 20 l 25,4,-1
 8 8 l 25,5,-1
 10 8 l 25,6,-1
 10 6 l 25,7,-1
 8 6 l 25,8,-1
 8 2 l 25,9,-1
 6 2 l 25,10,-1
 6 6 l 25,11,-1
 0 6 l 1,12,-1
 0 8 l 25,13,-1
 6 20 l 1,3,-1
EndSplineSet
EndChar

StartChar: five
Encoding: 53 53 21
Width: 12
Flags: W
LayerCount: 2
Fore
SplineSet
0 20 m 25,0,-1
 10 20 l 25,1,-1
 10 18 l 25,2,-1
 2 18 l 25,3,-1
 2 12 l 25,4,-1
 8 12 l 25,5,-1
 10 10 l 25,6,-1
 10 4 l 25,7,-1
 8 2 l 25,8,-1
 2 2 l 25,9,-1
 0 4 l 25,10,-1
 0 8 l 25,11,-1
 2 8 l 25,12,-1
 2 5 l 25,13,-1
 3 4 l 25,14,-1
 7 4 l 25,15,-1
 8 5 l 25,16,-1
 8 9 l 25,17,-1
 7 10 l 25,18,-1
 0 10 l 25,19,-1
 0 20 l 25,0,-1
EndSplineSet
EndChar

StartChar: six
Encoding: 54 54 22
Width: 12
Flags: W
LayerCount: 2
Fore
SplineSet
7 10 m 25,0,-1
 3 10 l 25,1,-1
 2 9 l 25,2,-1
 2 5 l 25,3,-1
 3 4 l 25,4,-1
 7 4 l 25,5,-1
 8 5 l 25,6,-1
 8 9 l 25,7,-1
 7 10 l 25,0,-1
2 20 m 25,8,-1
 8 20 l 25,9,-1
 10 18 l 25,10,-1
 10 14 l 25,11,-1
 8 14 l 25,12,-1
 8 17 l 25,13,-1
 7 18 l 25,14,-1
 3 18 l 25,15,-1
 2 17 l 25,16,-1
 2 11 l 25,17,-1
 3 12 l 25,18,-1
 8 12 l 25,19,-1
 10 10 l 25,20,-1
 10 4 l 25,21,-1
 8 2 l 25,22,-1
 2 2 l 25,23,-1
 0 4 l 25,24,-1
 0 18 l 25,25,-1
 2 20 l 25,8,-1
EndSplineSet
EndChar

StartChar: seven
Encoding: 55 55 23
Width: 12
Flags: W
LayerCount: 2
Fore
SplineSet
0 20 m 25,0,-1
 10 20 l 25,1,-1
 10 18 l 25,2,-1
 2 2 l 25,3,-1
 0 2 l 25,4,-1
 8 18 l 25,5,-1
 0 18 l 25,6,-1
 0 20 l 25,0,-1
EndSplineSet
EndChar

StartChar: eight
Encoding: 56 56 24
Width: 12
Flags: W
LayerCount: 2
Fore
SplineSet
7 10 m 25,0,-1
 3 10 l 25,1,-1
 2 9 l 25,2,-1
 2 5 l 25,3,-1
 3 4 l 25,4,-1
 7 4 l 25,5,-1
 8 5 l 25,6,-1
 8 9 l 25,7,-1
 7 10 l 25,0,-1
7 18 m 25,8,-1
 3 18 l 25,9,-1
 2 17 l 25,10,-1
 2 13 l 25,11,-1
 3 12 l 25,12,-1
 7 12 l 25,13,-1
 8 13 l 25,14,-1
 8 17 l 25,15,-1
 7 18 l 25,8,-1
2 20 m 25,16,-1
 8 20 l 25,17,-1
 10 18 l 25,18,-1
 10 12 l 25,19,-1
 9 11 l 25,20,-1
 10 10 l 25,21,-1
 10 4 l 25,22,-1
 8 2 l 25,23,-1
 2 2 l 25,24,-1
 0 4 l 25,25,-1
 0 10 l 25,26,-1
 1 11 l 25,27,-1
 0 12 l 25,28,-1
 0 18 l 25,29,-1
 2 20 l 25,16,-1
EndSplineSet
EndChar

StartChar: nine
Encoding: 57 57 25
Width: 12
Flags: W
LayerCount: 2
Fore
SplineSet
3 12 m 25,0,-1
 7 12 l 25,1,-1
 8 13 l 25,2,-1
 8 17 l 25,3,-1
 7 18 l 25,4,-1
 3 18 l 25,5,-1
 2 17 l 25,6,-1
 2 13 l 25,7,-1
 3 12 l 25,0,-1
8 2 m 25,8,-1
 2 2 l 25,9,-1
 0 4 l 25,10,-1
 0 8 l 25,11,-1
 2 8 l 25,12,-1
 2 5 l 25,13,-1
 3 4 l 25,14,-1
 7 4 l 25,15,-1
 8 5 l 25,16,-1
 8 11 l 25,17,-1
 7 10 l 25,18,-1
 2 10 l 25,19,-1
 0 12 l 25,20,-1
 0 18 l 25,21,-1
 2 20 l 25,22,-1
 8 20 l 25,23,-1
 10 18 l 25,24,-1
 10 4 l 25,25,-1
 8 2 l 25,8,-1
EndSplineSet
EndChar

StartChar: colon
Encoding: 58 58 26
Width: 12
Flags: W
LayerCount: 2
Fore
SplineSet
4 12 m 25,0,-1
 6 12 l 25,1,-1
 6 10 l 25,2,-1
 4 10 l 25,3,-1
 4 12 l 25,0,-1
4 4 m 25,4,-1
 6 4 l 25,5,-1
 6 2 l 25,6,-1
 4 2 l 25,7,-1
 4 4 l 25,4,-1
EndSplineSet
EndChar

StartChar: semicolon
Encoding: 59 59 27
Width: 12
Flags: W
LayerCount: 2
Fore
SplineSet
4 12 m 25,0,-1
 6 12 l 25,1,-1
 6 10 l 25,2,-1
 4 10 l 25,3,-1
 4 12 l 25,0,-1
4 4 m 25,4,-1
 6 4 l 25,5,-1
 6 2 l 25,6,-1
 4 -2 l 25,7,-1
 2 -2 l 25,8,-1
 4 2 l 25,9,-1
 4 4 l 25,4,-1
EndSplineSet
EndChar

StartChar: less
Encoding: 60 60 28
Width: 12
Flags: W
LayerCount: 2
Fore
SplineSet
10 16 m 25,0,-1
 10 14 l 25,1,-1
 0 10 l 25,2,-1
 0 12 l 25,3,-1
 10 16 l 25,0,-1
0 12 m 1,4,-1
 10 8 l 25,5,-1
 10 6 l 1,6,-1
 0 10 l 25,7,-1
 0 12 l 1,4,-1
EndSplineSet
EndChar

StartChar: equal
Encoding: 61 61 29
Width: 12
Flags: W
LayerCount: 2
Fore
SplineSet
0 14 m 25,0,-1
 10 14 l 25,1,-1
 10 12 l 25,2,-1
 0 12 l 25,3,-1
 0 14 l 25,0,-1
0 10 m 25,4,-1
 10 10 l 25,5,-1
 10 8 l 25,6,-1
 0 8 l 25,7,-1
 0 10 l 25,4,-1
EndSplineSet
EndChar

StartChar: greater
Encoding: 62 62 30
Width: 12
Flags: W
LayerCount: 2
Fore
SplineSet
0 16 m 25,0,-1
 10 12 l 25,1,-1
 10 10 l 25,2,-1
 0 14 l 25,3,-1
 0 16 l 25,0,-1
10 12 m 25,4,-1
 10 10 l 25,5,-1
 0 6 l 25,6,-1
 0 8 l 25,7,-1
 10 12 l 25,4,-1
EndSplineSet
EndChar

StartChar: question
Encoding: 63 63 31
Width: 12
Flags: W
LayerCount: 2
Fore
SplineSet
4 4 m 25,0,-1
 6 4 l 25,1,-1
 6 2 l 25,2,-1
 4 2 l 25,3,-1
 4 4 l 25,0,-1
2 20 m 25,4,-1
 8 20 l 25,5,-1
 10 18 l 25,6,-1
 10 12 l 25,7,-1
 6 8 l 25,8,-1
 6 6 l 25,9,-1
 4 6 l 25,10,-1
 4 9 l 25,11,-1
 8 13 l 25,12,-1
 8 17 l 25,13,-1
 7 18 l 25,14,-1
 3 18 l 25,15,-1
 2 17 l 25,16,-1
 2 14 l 25,17,-1
 0 14 l 25,18,-1
 0 18 l 25,19,-1
 2 20 l 25,4,-1
EndSplineSet
EndChar

StartChar: at
Encoding: 64 64 32
Width: 12
Flags: W
LayerCount: 2
Fore
SplineSet
5 11 m 25,0,-1
 4 11 l 25,1,-1
 4 7 l 25,2,-1
 5 7 l 25,3,-1
 5 11 l 25,0,-1
6 11 m 17,4,-1
 6 12 l 1,5,-1
 7 12 l 1,6,-1
 7 7 l 1,7,-1
 8 8 l 1,8,-1
 8 17 l 1,9,-1
 7 18 l 25,10,-1
 3 18 l 25,11,-1
 2 17 l 25,12,-1
 2 5 l 25,13,-1
 3 4 l 25,14,-1
 10 4 l 25,15,-1
 8 2 l 25,16,-1
 2 2 l 25,17,-1
 0 4 l 25,18,-1
 0 18 l 25,19,-1
 2 20 l 25,20,-1
 8 20 l 25,21,-1
 10 18 l 25,22,-1
 10 8 l 25,23,-1
 8 6 l 1,24,-1
 6 6 l 1,25,-1
 6 7 l 1,26,-1
 5 6 l 9,27,-1
 4 6 l 1,28,-1
 3 7 l 25,29,-1
 3 11 l 25,30,-1
 4 12 l 25,31,-1
 5 12 l 25,32,-1
 6 11 l 17,4,-1
EndSplineSet
EndChar

StartChar: A
Encoding: 65 65 33
Width: 12
Flags: W
LayerCount: 2
Fore
SplineSet
3 12 m 25,0,-1
 7 12 l 25,1,-1
 7 10 l 25,2,-1
 3 10 l 25,3,-1
 3 12 l 25,0,-1
4 20 m 25,4,-1
 6 20 l 25,5,-1
 2 2 l 25,6,-1
 0 2 l 25,7,-1
 4 20 l 25,4,-1
4 20 m 25,8,-1
 6 20 l 25,9,-1
 10 2 l 25,10,-1
 8 2 l 25,11,-1
 4 20 l 25,8,-1
EndSplineSet
EndChar

StartChar: B
Encoding: 66 66 34
Width: 12
Flags: W
LayerCount: 2
Fore
SplineSet
7 10 m 25,0,-1
 2 10 l 25,1,-1
 2 4 l 25,2,-1
 7 4 l 25,3,-1
 8 5 l 25,4,-1
 8 9 l 25,5,-1
 7 10 l 25,0,-1
7 18 m 25,6,-1
 2 18 l 25,7,-1
 2 12 l 25,8,-1
 7 12 l 25,9,-1
 8 13 l 25,10,-1
 8 17 l 25,11,-1
 7 18 l 25,6,-1
0 20 m 25,12,-1
 8 20 l 25,13,-1
 10 18 l 25,14,-1
 10 12 l 25,15,-1
 9 11 l 25,16,-1
 10 10 l 25,17,-1
 10 4 l 25,18,-1
 8 2 l 25,19,-1
 0 2 l 25,20,-1
 0 20 l 25,12,-1
EndSplineSet
EndChar

StartChar: C
Encoding: 67 67 35
Width: 12
Flags: W
LayerCount: 2
Fore
SplineSet
8 20 m 25,0,-1
 10 18 l 25,1,-1
 10 14 l 25,2,-1
 8 14 l 25,3,-1
 8 17 l 25,4,-1
 7 18 l 25,5,-1
 3 18 l 25,6,-1
 2 17 l 25,7,-1
 2 5 l 25,8,-1
 3 4 l 25,9,-1
 7 4 l 25,10,-1
 8 5 l 25,11,-1
 8 8 l 25,12,-1
 10 8 l 25,13,-1
 10 4 l 25,14,-1
 8 2 l 25,15,-1
 2 2 l 25,16,-1
 0 4 l 25,17,-1
 0 18 l 25,18,-1
 2 20 l 25,19,-1
 8 20 l 25,0,-1
EndSplineSet
EndChar

StartChar: D
Encoding: 68 68 36
Width: 12
Flags: W
LayerCount: 2
Fore
SplineSet
8 17 m 25,0,-1
 7 18 l 25,1,-1
 2 18 l 25,2,-1
 2 4 l 25,3,-1
 7 4 l 25,4,-1
 8 5 l 25,5,-1
 8 17 l 25,0,-1
10 4 m 25,6,-1
 8 2 l 25,7,-1
 0 2 l 25,8,-1
 0 20 l 25,9,-1
 8 20 l 25,10,-1
 10 18 l 25,11,-1
 10 4 l 25,6,-1
EndSplineSet
EndChar

StartChar: E
Encoding: 69 69 37
Width: 12
Flags: W
LayerCount: 2
Fore
SplineSet
2 18 m 1,0,-1
 2 12 l 1,1,-1
 10 12 l 25,2,-1
 10 10 l 25,3,-1
 2 10 l 1,4,-1
 2 4 l 1,5,-1
 10 4 l 25,6,-1
 10 2 l 25,7,-1
 0 2 l 1,8,-1
 0 20 l 1,9,-1
 10 20 l 25,10,-1
 10 18 l 25,11,-1
 2 18 l 1,0,-1
EndSplineSet
EndChar

StartChar: F
Encoding: 70 70 38
Width: 12
Flags: W
LayerCount: 2
Fore
SplineSet
0 2 m 17,0,-1
 0 20 l 1,1,-1
 10 20 l 25,2,-1
 10 18 l 25,3,-1
 2 18 l 1,4,-1
 2 12 l 1,5,-1
 10 12 l 25,6,-1
 10 10 l 25,7,-1
 2 10 l 1,8,-1
 2 2 l 9,9,-1
 0 2 l 17,0,-1
EndSplineSet
EndChar

StartChar: G
Encoding: 71 71 39
Width: 12
Flags: W
LayerCount: 2
Fore
SplineSet
8 5 m 1,0,-1
 7 4 l 25,1,-1
 3 4 l 25,2,-1
 2 5 l 25,3,-1
 2 17 l 25,4,-1
 3 18 l 25,5,-1
 7 18 l 25,6,-1
 8 17 l 25,7,-1
 8 14 l 25,8,-1
 10 14 l 25,9,-1
 10 18 l 25,10,-1
 8 20 l 25,11,-1
 2 20 l 25,12,-1
 0 18 l 25,13,-1
 0 4 l 25,14,-1
 2 2 l 25,15,-1
 8 2 l 25,16,-1
 10 4 l 1,17,-1
 10 12 l 1,18,-1
 4 12 l 1,19,-1
 4 10 l 1,20,-1
 8 10 l 1,21,-1
 8 5 l 1,0,-1
EndSplineSet
EndChar

StartChar: H
Encoding: 72 72 40
Width: 12
Flags: W
LayerCount: 2
Fore
SplineSet
0 20 m 25,0,-1
 2 20 l 25,1,-1
 2 12 l 25,2,-1
 8 12 l 25,3,-1
 8 20 l 25,4,-1
 10 20 l 25,5,-1
 10 2 l 25,6,-1
 8 2 l 25,7,-1
 8 10 l 25,8,-1
 2 10 l 25,9,-1
 2 2 l 25,10,-1
 0 2 l 25,11,-1
 0 20 l 25,0,-1
EndSplineSet
EndChar

StartChar: I
Encoding: 73 73 41
Width: 12
Flags: W
LayerCount: 2
Fore
SplineSet
4 18 m 25,0,-1
 6 18 l 25,1,-1
 6 2 l 25,2,-1
 4 2 l 25,3,-1
 4 18 l 25,0,-1
EndSplineSet
EndChar

StartChar: J
Encoding: 74 74 42
Width: 12
Flags: W
LayerCount: 2
Fore
SplineSet
8 20 m 25,0,-1
 10 20 l 25,1,-1
 10 4 l 25,2,-1
 8 2 l 25,3,-1
 2 2 l 25,4,-1
 0 4 l 25,5,-1
 0 8 l 25,6,-1
 2 8 l 25,7,-1
 2 5 l 25,8,-1
 3 4 l 25,9,-1
 7 4 l 25,10,-1
 8 5 l 25,11,-1
 8 20 l 25,0,-1
EndSplineSet
EndChar

StartChar: K
Encoding: 75 75 43
Width: 12
Flags: W
LayerCount: 2
Fore
SplineSet
0 20 m 25,0,-1
 2 20 l 25,1,-1
 2 14 l 25,2,-1
 8 20 l 25,3,-1
 10 20 l 25,4,-1
 10 19 l 25,5,-1
 2 11 l 25,6,-1
 10 3 l 25,7,-1
 10 2 l 25,8,-1
 8 2 l 25,9,-1
 2 8 l 25,10,-1
 2 2 l 25,11,-1
 0 2 l 25,12,-1
 0 20 l 25,0,-1
EndSplineSet
EndChar

StartChar: L
Encoding: 76 76 44
Width: 12
Flags: W
LayerCount: 2
Fore
SplineSet
0 20 m 25,0,-1
 2 20 l 25,1,-1
 2 4 l 25,2,-1
 10 4 l 25,3,-1
 10 2 l 25,4,-1
 0 2 l 25,5,-1
 0 20 l 25,0,-1
EndSplineSet
EndChar

StartChar: M
Encoding: 77 77 45
Width: 12
Flags: W
LayerCount: 2
Fore
SplineSet
8 20 m 29,0,-1
 10 20 l 25,1,-1
 6 2 l 25,2,-1
 4 2 l 25,3,-1
 8 20 l 29,0,-1
0 20 m 25,4,-1
 2 20 l 25,5,-1
 6 2 l 25,6,-1
 4 2 l 25,7,-1
 0 20 l 25,4,-1
8 20 m 25,8,-1
 10 20 l 25,9,-1
 10 2 l 25,10,-1
 8 2 l 25,11,-1
 8 20 l 25,8,-1
0 20 m 25,12,-1
 2 20 l 25,13,-1
 2 2 l 25,14,-1
 0 2 l 25,15,-1
 0 20 l 25,12,-1
EndSplineSet
EndChar

StartChar: N
Encoding: 78 78 46
Width: 12
Flags: W
LayerCount: 2
Fore
SplineSet
0 20 m 25,0,-1
 2 20 l 25,1,-1
 10 2 l 25,2,-1
 8 2 l 25,3,-1
 0 20 l 25,0,-1
8 20 m 25,4,-1
 10 20 l 25,5,-1
 10 2 l 25,6,-1
 8 2 l 25,7,-1
 8 20 l 25,4,-1
0 20 m 25,8,-1
 2 20 l 25,9,-1
 2 2 l 25,10,-1
 0 2 l 25,11,-1
 0 20 l 25,8,-1
EndSplineSet
EndChar

StartChar: O
Encoding: 79 79 47
Width: 12
Flags: W
LayerCount: 2
Fore
SplineSet
7 18 m 25,0,-1
 3 18 l 25,1,-1
 2 17 l 25,2,-1
 2 5 l 25,3,-1
 3 4 l 25,4,-1
 7 4 l 25,5,-1
 8 5 l 25,6,-1
 8 17 l 25,7,-1
 7 18 l 25,0,-1
2 20 m 25,8,-1
 8 20 l 25,9,-1
 10 18 l 25,10,-1
 10 4 l 25,11,-1
 8 2 l 25,12,-1
 2 2 l 25,13,-1
 0 4 l 25,14,-1
 0 18 l 25,15,-1
 2 20 l 25,8,-1
EndSplineSet
EndChar

StartChar: P
Encoding: 80 80 48
Width: 12
Flags: W
LayerCount: 2
Fore
SplineSet
7 18 m 25,0,-1
 2 18 l 25,1,-1
 2 12 l 25,2,-1
 7 12 l 25,3,-1
 8 13 l 25,4,-1
 8 17 l 25,5,-1
 7 18 l 25,0,-1
0 20 m 25,6,-1
 8 20 l 25,7,-1
 10 18 l 25,8,-1
 10 12 l 25,9,-1
 8 10 l 25,10,-1
 2 10 l 25,11,-1
 2 2 l 25,12,-1
 0 2 l 25,13,-1
 0 20 l 25,6,-1
EndSplineSet
EndChar

StartChar: Q
Encoding: 81 81 49
Width: 12
Flags: W
LayerCount: 2
Fore
SplineSet
5 6 m 25,0,-1
 7 6 l 25,1,-1
 12 1 l 25,2,-1
 12 0 l 25,3,-1
 10 0 l 25,4,-1
 5 5 l 25,5,-1
 5 6 l 25,0,-1
7 18 m 25,6,-1
 3 18 l 25,7,-1
 2 17 l 25,8,-1
 2 5 l 25,9,-1
 3 4 l 25,10,-1
 7 4 l 25,11,-1
 8 5 l 25,12,-1
 8 17 l 25,13,-1
 7 18 l 25,6,-1
2 20 m 25,14,-1
 8 20 l 25,15,-1
 10 18 l 25,16,-1
 10 4 l 25,17,-1
 8 2 l 25,18,-1
 2 2 l 25,19,-1
 0 4 l 25,20,-1
 0 18 l 25,21,-1
 2 20 l 25,14,-1
EndSplineSet
EndChar

StartChar: R
Encoding: 82 82 50
Width: 12
Flags: W
LayerCount: 2
Fore
SplineSet
7 18 m 25,0,-1
 2 18 l 25,1,-1
 2 12 l 25,2,-1
 7 12 l 25,3,-1
 8 13 l 25,4,-1
 8 17 l 25,5,-1
 7 18 l 25,0,-1
0 2 m 25,6,-1
 0 20 l 25,7,-1
 8 20 l 25,8,-1
 10 18 l 25,9,-1
 10 12 l 25,10,-1
 8 10 l 25,11,-1
 3 10 l 29,12,-1
 10 3 l 25,13,-1
 10 2 l 25,14,-1
 8 2 l 25,15,-1
 2 8 l 25,16,-1
 2 2 l 25,17,-1
 0 2 l 25,6,-1
EndSplineSet
EndChar

StartChar: S
Encoding: 83 83 51
Width: 12
Flags: W
LayerCount: 2
Fore
SplineSet
8 20 m 25,0,-1
 10 18 l 25,1,-1
 10 14 l 25,2,-1
 8 14 l 25,3,-1
 8 17 l 25,4,-1
 7 18 l 25,5,-1
 3 18 l 25,6,-1
 2 17 l 25,7,-1
 2 13 l 25,8,-1
 3 12 l 25,9,-1
 8 12 l 25,10,-1
 10 10 l 25,11,-1
 10 4 l 25,12,-1
 8 2 l 25,13,-1
 2 2 l 25,14,-1
 0 4 l 25,15,-1
 0 8 l 25,16,-1
 2 8 l 25,17,-1
 2 5 l 25,18,-1
 3 4 l 25,19,-1
 7 4 l 25,20,-1
 8 5 l 25,21,-1
 8 9 l 25,22,-1
 7 10 l 25,23,-1
 2 10 l 25,24,-1
 0 12 l 25,25,-1
 0 18 l 25,26,-1
 2 20 l 25,27,-1
 8 20 l 25,0,-1
EndSplineSet
EndChar

StartChar: T
Encoding: 84 84 52
Width: 12
Flags: W
LayerCount: 2
Fore
SplineSet
0 20 m 25,0,-1
 10 20 l 25,1,-1
 10 18 l 25,2,-1
 6 18 l 25,3,-1
 6 2 l 25,4,-1
 4 2 l 25,5,-1
 4 18 l 25,6,-1
 0 18 l 25,7,-1
 0 20 l 25,0,-1
EndSplineSet
EndChar

StartChar: U
Encoding: 85 85 53
Width: 12
Flags: W
LayerCount: 2
Fore
SplineSet
2 20 m 25,0,-1
 2 5 l 1,1,-1
 3 4 l 25,2,-1
 7 4 l 25,3,-1
 8 5 l 1,4,-1
 8 20 l 25,5,-1
 10 20 l 25,6,-1
 10 4 l 1,7,-1
 8 2 l 25,8,-1
 2 2 l 25,9,-1
 0 4 l 1,10,-1
 0 20 l 25,11,-1
 2 20 l 25,0,-1
EndSplineSet
EndChar

StartChar: V
Encoding: 86 86 54
Width: 12
Flags: W
LayerCount: 2
Fore
SplineSet
8 20 m 25,0,-1
 10 20 l 25,1,-1
 6 2 l 25,2,-1
 4 2 l 25,3,-1
 8 20 l 25,0,-1
0 20 m 25,4,-1
 2 20 l 25,5,-1
 6 2 l 25,6,-1
 4 2 l 25,7,-1
 0 20 l 25,4,-1
EndSplineSet
EndChar

StartChar: W
Encoding: 87 87 55
Width: 12
Flags: W
LayerCount: 2
Fore
SplineSet
4 20 m 25,0,-1
 6 20 l 25,1,-1
 10 2 l 25,2,-1
 8 2 l 25,3,-1
 4 20 l 25,0,-1
4 20 m 25,4,-1
 6 20 l 25,5,-1
 2 2 l 25,6,-1
 0 2 l 25,7,-1
 4 20 l 25,4,-1
8 20 m 25,8,-1
 10 20 l 25,9,-1
 10 2 l 25,10,-1
 8 2 l 25,11,-1
 8 20 l 25,8,-1
0 20 m 25,12,-1
 2 20 l 25,13,-1
 2 2 l 25,14,-1
 0 2 l 25,15,-1
 0 20 l 25,12,-1
EndSplineSet
EndChar

StartChar: X
Encoding: 88 88 56
Width: 12
Flags: W
LayerCount: 2
Fore
SplineSet
8 20 m 25,0,-1
 10 20 l 25,1,-1
 2 2 l 25,2,-1
 0 2 l 25,3,-1
 8 20 l 25,0,-1
0 20 m 25,4,-1
 2 20 l 25,5,-1
 10 2 l 25,6,-1
 8 2 l 25,7,-1
 0 20 l 25,4,-1
EndSplineSet
EndChar

StartChar: Y
Encoding: 89 89 57
Width: 12
Flags: W
LayerCount: 2
Fore
SplineSet
4 12 m 25,0,-1
 6 12 l 25,1,-1
 6 2 l 25,2,-1
 4 2 l 25,3,-1
 4 12 l 25,0,-1
8 20 m 25,4,-1
 10 20 l 25,5,-1
 6 10 l 25,6,-1
 4 10 l 25,7,-1
 8 20 l 25,4,-1
0 20 m 25,8,-1
 2 20 l 25,9,-1
 6 10 l 25,10,-1
 4 10 l 25,11,-1
 0 20 l 25,8,-1
EndSplineSet
EndChar

StartChar: Z
Encoding: 90 90 58
Width: 12
Flags: W
LayerCount: 2
Fore
SplineSet
0 20 m 25,0,-1
 10 20 l 25,1,-1
 10 18 l 25,2,-1
 2 4 l 25,3,-1
 10 4 l 25,4,-1
 10 2 l 25,5,-1
 0 2 l 25,6,-1
 0 4 l 25,7,-1
 8 18 l 25,8,-1
 0 18 l 25,9,-1
 0 20 l 25,0,-1
EndSplineSet
EndChar

StartChar: bracketleft
Encoding: 91 91 59
Width: 12
Flags: W
LayerCount: 2
Fore
SplineSet
2 20 m 1,0,-1
 8 20 l 25,1,-1
 8 18 l 25,2,-1
 4 18 l 1,3,-1
 4 4 l 25,4,-1
 8 4 l 25,5,-1
 8 2 l 25,6,-1
 2 2 l 25,7,-1
 2 20 l 1,0,-1
EndSplineSet
EndChar

StartChar: backslash
Encoding: 92 92 60
Width: 12
Flags: W
LayerCount: 2
Fore
SplineSet
0 20 m 25,0,-1
 2 20 l 25,1,-1
 10 2 l 25,2,-1
 8 2 l 25,3,-1
 0 20 l 25,0,-1
EndSplineSet
EndChar

StartChar: bracketright
Encoding: 93 93 61
Width: 12
Flags: W
LayerCount: 2
Fore
SplineSet
2 20 m 25,0,-1
 8 20 l 1,1,-1
 8 2 l 25,2,-1
 2 2 l 25,3,-1
 2 4 l 25,4,-1
 6 4 l 25,5,-1
 6 18 l 1,6,-1
 2 18 l 25,7,-1
 2 20 l 25,0,-1
EndSplineSet
EndChar

StartChar: asciicircum
Encoding: 94 94 62
Width: 12
Flags: W
LayerCount: 2
Fore
SplineSet
4 20 m 25,0,-1
 6 20 l 25,1,-1
 10 10 l 25,2,-1
 8 10 l 25,3,-1
 4 20 l 25,0,-1
4 20 m 25,4,-1
 6 20 l 25,5,-1
 2 10 l 25,6,-1
 0 10 l 25,7,-1
 4 20 l 25,4,-1
EndSplineSet
EndChar

StartChar: underscore
Encoding: 95 95 63
Width: 12
Flags: W
LayerCount: 2
Fore
SplineSet
0 0 m 1,0,-1
 12 0 l 25,1,-1
 12 -2 l 25,2,-1
 0 -2 l 1,3,-1
 0 0 l 1,0,-1
EndSplineSet
EndChar

StartChar: grave
Encoding: 96 96 64
Width: 12
Flags: W
LayerCount: 2
Fore
SplineSet
2 22 m 25,0,-1
 4 22 l 25,1,-1
 8 17 l 25,2,-1
 8 16 l 25,3,-1
 6 16 l 25,4,-1
 2 21 l 25,5,-1
 2 22 l 25,0,-1
EndSplineSet
EndChar

StartChar: a
Encoding: 97 97 65
Width: 12
Flags: W
LayerCount: 2
Fore
SplineSet
7 6 m 25,0,-1
 3 6 l 25,1,-1
 2 5 l 25,2,-1
 3 4 l 25,3,-1
 7 4 l 25,4,-1
 8 5 l 25,5,-1
 7 6 l 25,0,-1
0 10 m 25,6,-1
 2 12 l 25,7,-1
 8 12 l 25,8,-1
 10 10 l 25,9,-1
 10 2 l 25,10,-1
 8 2 l 25,11,-1
 8 3 l 25,12,-1
 7 2 l 25,13,-1
 2 2 l 25,14,-1
 0 4 l 25,15,-1
 0 6 l 25,16,-1
 2 8 l 25,17,-1
 7 8 l 25,18,-1
 8 7 l 25,19,-1
 8 9 l 25,20,-1
 7 10 l 25,21,-1
 0 10 l 25,6,-1
EndSplineSet
EndChar

StartChar: b
Encoding: 98 98 66
Width: 12
Flags: W
LayerCount: 2
Fore
SplineSet
7 10 m 25,0,-1
 3 10 l 25,1,-1
 2 9 l 25,2,-1
 2 5 l 25,3,-1
 3 4 l 25,4,-1
 7 4 l 25,5,-1
 8 5 l 25,6,-1
 8 9 l 25,7,-1
 7 10 l 25,0,-1
0 20 m 25,8,-1
 2 20 l 25,9,-1
 2 11 l 25,10,-1
 3 12 l 25,11,-1
 8 12 l 25,12,-1
 10 10 l 25,13,-1
 10 4 l 25,14,-1
 8 2 l 25,15,-1
 3 2 l 25,16,-1
 2 3 l 25,17,-1
 2 2 l 25,18,-1
 0 2 l 25,19,-1
 0 20 l 25,8,-1
EndSplineSet
EndChar

StartChar: c
Encoding: 99 99 67
Width: 12
Flags: W
LayerCount: 2
Fore
SplineSet
8 12 m 25,0,-1
 10 10 l 1,1,-1
 10 8 l 25,2,-1
 8 8 l 25,3,-1
 8 9 l 1,4,-1
 7 10 l 25,5,-1
 3 10 l 25,6,-1
 2 9 l 25,7,-1
 2 5 l 1,8,-1
 3 4 l 25,9,-1
 7 4 l 25,10,-1
 8 5 l 1,11,-1
 8 6 l 25,12,-1
 10 6 l 25,13,-1
 10 4 l 1,14,-1
 8 2 l 25,15,-1
 2 2 l 25,16,-1
 0 4 l 1,17,-1
 0 10 l 25,18,-1
 2 12 l 25,19,-1
 8 12 l 25,0,-1
EndSplineSet
EndChar

StartChar: d
Encoding: 100 100 68
Width: 12
Flags: W
LayerCount: 2
Fore
SplineSet
3 10 m 25,0,-1
 7 10 l 25,1,-1
 8 9 l 25,2,-1
 8 5 l 25,3,-1
 7 4 l 25,4,-1
 3 4 l 25,5,-1
 2 5 l 25,6,-1
 2 9 l 25,7,-1
 3 10 l 25,0,-1
10 20 m 25,8,-1
 8 20 l 25,9,-1
 8 11 l 25,10,-1
 7 12 l 25,11,-1
 2 12 l 25,12,-1
 0 10 l 25,13,-1
 0 4 l 25,14,-1
 2 2 l 25,15,-1
 7 2 l 25,16,-1
 8 3 l 25,17,-1
 8 2 l 25,18,-1
 10 2 l 25,19,-1
 10 20 l 25,8,-1
EndSplineSet
EndChar

StartChar: e
Encoding: 101 101 69
Width: 12
Flags: W
LayerCount: 2
Fore
SplineSet
2 9 m 1,0,-1
 2 8 l 1,1,-1
 8 8 l 1,2,-1
 8 9 l 1,3,-1
 7 10 l 25,4,-1
 3 10 l 25,5,-1
 2 9 l 1,0,-1
10 4 m 1049,6,-1
3 4 m 25,7,-1
 10 4 l 1,8,-1
 8 2 l 25,9,-1
 2 2 l 25,10,-1
 0 4 l 1,11,-1
 0 10 l 25,12,-1
 2 12 l 25,13,-1
 8 12 l 25,14,-1
 10 10 l 1,15,-1
 10 6 l 25,16,-1
 2 6 l 25,17,-1
 2 5 l 25,18,-1
 3 4 l 25,7,-1
EndSplineSet
EndChar

StartChar: f
Encoding: 102 102 70
Width: 12
Flags: W
LayerCount: 2
Fore
SplineSet
4 20 m 25,0,-1
 8 20 l 25,1,-1
 10 18 l 25,2,-1
 10 14 l 25,3,-1
 8 14 l 25,4,-1
 8 17 l 25,5,-1
 7 18 l 25,6,-1
 5 18 l 25,7,-1
 4 17 l 25,8,-1
 4 12 l 25,9,-1
 6 12 l 25,10,-1
 6 10 l 25,11,-1
 4 10 l 25,12,-1
 4 2 l 25,13,-1
 2 2 l 25,14,-1
 2 10 l 25,15,-1
 0 10 l 25,16,-1
 0 12 l 25,17,-1
 2 12 l 25,18,-1
 2 18 l 25,19,-1
 4 20 l 25,0,-1
EndSplineSet
EndChar

StartChar: g
Encoding: 103 103 71
Width: 12
Flags: W
LayerCount: 2
Fore
SplineSet
3 4 m 25,0,-1
 7 4 l 25,1,-1
 8 5 l 25,2,-1
 8 9 l 25,3,-1
 7 10 l 25,4,-1
 3 10 l 25,5,-1
 2 9 l 25,6,-1
 2 5 l 25,7,-1
 3 4 l 25,0,-1
8 3 m 25,8,-1
 7 2 l 25,9,-1
 2 2 l 25,10,-1
 0 4 l 25,11,-1
 0 10 l 25,12,-1
 2 12 l 25,13,-1
 7 12 l 25,14,-1
 8 11 l 25,15,-1
 8 12 l 25,16,-1
 10 12 l 1,17,-1
 10 -4 l 25,18,-1
 8 -6 l 25,19,-1
 2 -6 l 25,20,-1
 0 -4 l 25,21,-1
 0 0 l 25,22,-1
 2 0 l 25,23,-1
 2 -3 l 25,24,-1
 3 -4 l 25,25,-1
 7 -4 l 25,26,-1
 8 -3 l 25,27,-1
 8 3 l 25,8,-1
EndSplineSet
EndChar

StartChar: h
Encoding: 104 104 72
Width: 12
Flags: W
LayerCount: 2
Fore
SplineSet
0 2 m 25,0,-1
 0 20 l 25,1,-1
 2 20 l 25,2,-1
 2 11 l 25,3,-1
 3 12 l 25,4,-1
 8 12 l 25,5,-1
 10 10 l 1,6,-1
 10 2 l 25,7,-1
 8 2 l 25,8,-1
 8 9 l 1,9,-1
 7 10 l 25,10,-1
 3 10 l 25,11,-1
 2 9 l 1,12,-1
 2 2 l 25,13,-1
 0 2 l 25,0,-1
EndSplineSet
EndChar

StartChar: i
Encoding: 105 105 73
Width: 12
Flags: W
LayerCount: 2
Fore
SplineSet
4 12 m 25,0,-1
 6 12 l 25,1,-1
 6 2 l 25,2,-1
 4 2 l 25,3,-1
 4 12 l 25,0,-1
4 20 m 25,4,-1
 6 20 l 25,5,-1
 6 18 l 25,6,-1
 4 18 l 25,7,-1
 4 20 l 25,4,-1
EndSplineSet
EndChar

StartChar: j
Encoding: 106 106 74
Width: 12
Flags: W
LayerCount: 2
Fore
SplineSet
4 12 m 25,0,-1
 6 12 l 25,1,-1
 6 -4 l 25,2,-1
 4 -6 l 25,3,-1
 2 -6 l 25,4,-1
 0 -4 l 25,5,-1
 0 0 l 25,6,-1
 2 0 l 25,7,-1
 2 -3 l 25,8,-1
 3 -4 l 25,9,-1
 4 -3 l 25,10,-1
 4 12 l 25,0,-1
4 20 m 25,11,-1
 6 20 l 25,12,-1
 6 18 l 25,13,-1
 4 18 l 25,14,-1
 4 20 l 25,11,-1
EndSplineSet
EndChar

StartChar: k
Encoding: 107 107 75
Width: 12
Flags: W
LayerCount: 2
Fore
SplineSet
0 2 m 25,0,-1
 0 20 l 17,1,-1
 2 20 l 1,2,-1
 2 9 l 1,3,-1
 8 12 l 1,4,-1
 10 12 l 25,5,-1
 10 11 l 9,6,-1
 2 7 l 25,7,-1
 10 3 l 1,8,-1
 10 2 l 25,9,-1
 8 2 l 1,10,-1
 2 5 l 9,11,-1
 2 2 l 25,12,-1
 0 2 l 25,0,-1
EndSplineSet
EndChar

StartChar: l
Encoding: 108 108 76
Width: 12
Flags: W
LayerCount: 2
Fore
SplineSet
4 20 m 25,0,-1
 6 20 l 25,1,-1
 6 2 l 25,2,-1
 4 2 l 25,3,-1
 4 20 l 25,0,-1
EndSplineSet
EndChar

StartChar: m
Encoding: 109 109 77
Width: 12
Flags: W
LayerCount: 2
Fore
SplineSet
0 12 m 25,0,-1
 2 12 l 25,1,-1
 2 11.0595703125 l 25,2,-1
 3 12 l 1,3,-1
 4 12 l 25,4,-1
 5 11 l 1,5,-1
 6 12 l 25,6,-1
 8 12 l 1,7,-1
 10 10 l 25,8,-1
 10 2 l 25,9,-1
 8 2 l 25,10,-1
 8 9 l 25,11,-1
 7 10 l 25,12,-1
 6 9 l 25,13,-1
 6 2 l 25,14,-1
 4 2 l 25,15,-1
 4 9 l 25,16,-1
 3 10 l 25,17,-1
 2 9 l 25,18,-1
 2 2 l 25,19,-1
 0 2 l 25,20,-1
 0 12 l 25,0,-1
EndSplineSet
EndChar

StartChar: n
Encoding: 110 110 78
Width: 12
Flags: W
LayerCount: 2
Fore
SplineSet
8 12 m 17,0,-1
 10 10 l 25,1,-1
 10 2 l 25,2,-1
 8 2 l 25,3,-1
 8 9 l 25,4,-1
 7 10 l 25,5,-1
 3 10 l 25,6,-1
 2 9 l 25,7,-1
 2 2 l 25,8,-1
 0 2 l 25,9,-1
 0 12 l 25,10,-1
 2 12 l 25,11,-1
 2 11.0595703125 l 25,12,-1
 3 12 l 9,13,-1
 8 12 l 17,0,-1
EndSplineSet
EndChar

StartChar: o
Encoding: 111 111 79
Width: 12
Flags: W
LayerCount: 2
Fore
SplineSet
7 10 m 25,0,-1
 3 10 l 25,1,-1
 2 9 l 25,2,-1
 2 5 l 1,3,-1
 3 4 l 25,4,-1
 7 4 l 25,5,-1
 8 5 l 1,6,-1
 8 9 l 25,7,-1
 7 10 l 25,0,-1
2 12 m 25,8,-1
 8 12 l 25,9,-1
 10 10 l 25,10,-1
 10 4 l 1,11,-1
 8 2 l 25,12,-1
 2 2 l 25,13,-1
 0 4 l 1,14,-1
 0 10 l 25,15,-1
 2 12 l 25,8,-1
EndSplineSet
EndChar

StartChar: p
Encoding: 112 112 80
Width: 12
Flags: W
LayerCount: 2
Fore
SplineSet
7 4 m 25,0,-1
 3 4 l 25,1,-1
 2 5 l 25,2,-1
 2 9 l 25,3,-1
 3 10 l 25,4,-1
 7 10 l 25,5,-1
 8 9 l 25,6,-1
 8 5 l 25,7,-1
 7 4 l 25,0,-1
0 -6 m 25,8,-1
 2 -6 l 25,9,-1
 2 3 l 25,10,-1
 3 2 l 25,11,-1
 8 2 l 25,12,-1
 10 4 l 25,13,-1
 10 10 l 25,14,-1
 8 12 l 25,15,-1
 3 12 l 25,16,-1
 2 11 l 25,17,-1
 2 12 l 25,18,-1
 0 12 l 25,19,-1
 0 -6 l 25,8,-1
EndSplineSet
EndChar

StartChar: q
Encoding: 113 113 81
Width: 12
Flags: W
LayerCount: 2
Fore
SplineSet
3 4 m 25,0,-1
 7 4 l 25,1,-1
 8 5 l 25,2,-1
 8 9 l 25,3,-1
 7 10 l 25,4,-1
 3 10 l 25,5,-1
 2 9 l 25,6,-1
 2 5 l 25,7,-1
 3 4 l 25,0,-1
10 -6 m 25,8,-1
 8 -6 l 25,9,-1
 8 3 l 25,10,-1
 7 2 l 25,11,-1
 2 2 l 25,12,-1
 0 4 l 25,13,-1
 0 10 l 25,14,-1
 2 12 l 25,15,-1
 7 12 l 25,16,-1
 8 11 l 25,17,-1
 8 12 l 25,18,-1
 10 12 l 25,19,-1
 10 -6 l 25,8,-1
EndSplineSet
EndChar

StartChar: r
Encoding: 114 114 82
Width: 12
Flags: W
LayerCount: 2
Fore
SplineSet
10 10 m 25,0,-1
 10 8 l 25,1,-1
 8 8 l 25,2,-1
 8 9 l 25,3,-1
 7 10 l 25,4,-1
 3 10 l 1,5,-1
 2 9 l 25,6,-1
 2 2 l 25,7,-1
 0 2 l 25,8,-1
 0 12 l 25,9,-1
 2 12 l 25,10,-1
 2 11.0595703125 l 25,11,-1
 3 12 l 9,12,-1
 8 12 l 9,13,-1
 10 10 l 25,0,-1
EndSplineSet
EndChar

StartChar: s
Encoding: 115 115 83
Width: 12
Flags: W
LayerCount: 2
Fore
SplineSet
2 12 m 25,0,-1
 8 12 l 25,1,-1
 10 10 l 25,2,-1
 3 10 l 25,3,-1
 2 9 l 25,4,-1
 3 8 l 25,5,-1
 8 8 l 25,6,-1
 10 6 l 25,7,-1
 10 4 l 25,8,-1
 8 2 l 25,9,-1
 2 2 l 25,10,-1
 0 4 l 25,11,-1
 7 4 l 25,12,-1
 8 5 l 25,13,-1
 7 6 l 25,14,-1
 2 6 l 25,15,-1
 0 8 l 25,16,-1
 0 10 l 25,17,-1
 2 12 l 25,0,-1
EndSplineSet
EndChar

StartChar: t
Encoding: 116 116 84
Width: 12
Flags: W
LayerCount: 2
Fore
SplineSet
2 20 m 25,0,-1
 4 20 l 25,1,-1
 4 12 l 25,2,-1
 6 12 l 25,3,-1
 6 10 l 25,4,-1
 4 10 l 25,5,-1
 4 5 l 25,6,-1
 5 4 l 25,7,-1
 7 4 l 25,8,-1
 8 5 l 25,9,-1
 8 8 l 25,10,-1
 10 8 l 25,11,-1
 10 4 l 25,12,-1
 8 2 l 25,13,-1
 4 2 l 25,14,-1
 2 4 l 25,15,-1
 2 10 l 25,16,-1
 0 10 l 25,17,-1
 0 12 l 25,18,-1
 2 12 l 25,19,-1
 2 20 l 25,0,-1
EndSplineSet
EndChar

StartChar: u
Encoding: 117 117 85
Width: 12
Flags: W
LayerCount: 2
Fore
SplineSet
2 2 m 17,0,-1
 0 4 l 25,1,-1
 0 12 l 25,2,-1
 2 12 l 25,3,-1
 2 5 l 25,4,-1
 3 4 l 25,5,-1
 7 4 l 25,6,-1
 8 5 l 25,7,-1
 8 12 l 25,8,-1
 10 12 l 25,9,-1
 10 2 l 25,10,-1
 8 2 l 25,11,-1
 8 2.939453125 l 25,12,-1
 7 2 l 9,13,-1
 2 2 l 17,0,-1
EndSplineSet
EndChar

StartChar: v
Encoding: 118 118 86
Width: 12
Flags: W
LayerCount: 2
Fore
SplineSet
4 2 m 25,0,-1
 8 12 l 25,1,-1
 10 12 l 25,2,-1
 6 2 l 25,3,-1
 4 2 l 25,0,-1
4 2 m 25,4,-1
 0 12 l 25,5,-1
 2 12 l 25,6,-1
 6 2 l 25,7,-1
 4 2 l 25,4,-1
EndSplineSet
EndChar

StartChar: w
Encoding: 119 119 87
Width: 12
Flags: W
LayerCount: 2
Fore
SplineSet
8 12 m 1,0,-1
 10 12 l 1,1,-1
 8 2 l 25,2,-1
 6 2 l 25,3,-1
 8 12 l 1,0,-1
0 12 m 1,4,-1
 2 12 l 1,5,-1
 4 2 l 25,6,-1
 2 2 l 25,7,-1
 0 12 l 1,4,-1
4 12 m 1,8,-1
 6 12 l 1,9,-1
 8 2 l 25,10,-1
 6 2 l 25,11,-1
 4 12 l 1,8,-1
4 12 m 1,12,-1
 6 12 l 1,13,-1
 4 2 l 25,14,-1
 2 2 l 25,15,-1
 4 12 l 1,12,-1
EndSplineSet
EndChar

StartChar: x
Encoding: 120 120 88
Width: 12
Flags: W
LayerCount: 2
Fore
SplineSet
8 12 m 25,0,-1
 10 12 l 25,1,-1
 10 11 l 25,2,-1
 2 2 l 25,3,-1
 0 2 l 25,4,-1
 0 3 l 25,5,-1
 8 12 l 25,0,-1
0 12 m 25,6,-1
 2 12 l 25,7,-1
 10 3 l 25,8,-1
 10 2 l 25,9,-1
 8 2 l 25,10,-1
 0 11 l 25,11,-1
 0 12 l 25,6,-1
EndSplineSet
EndChar

StartChar: y
Encoding: 121 121 89
Width: 12
Flags: W
LayerCount: 2
Fore
SplineSet
0 -6 m 1,0,-1
 2 -6 l 1,1,-1
 10 12 l 1,2,-1
 8 12 l 1,3,-1
 0 -6 l 1,0,-1
5.2001953125 4 m 17,4,-1
 2 12 l 9,5,-1
 0 12 l 25,6,-1
 4 2 l 25,7,-1
 5.2001953125 4 l 17,4,-1
EndSplineSet
EndChar

StartChar: z
Encoding: 122 122 90
Width: 12
Flags: W
LayerCount: 2
Fore
SplineSet
0 12 m 25,0,-1
 10 12 l 25,1,-1
 10 9 l 25,2,-1
 2 4 l 25,3,-1
 10 4 l 25,4,-1
 10 2 l 25,5,-1
 0 2 l 25,6,-1
 0 5 l 25,7,-1
 8 10 l 25,8,-1
 0 10 l 25,9,-1
 0 12 l 25,0,-1
EndSplineSet
EndChar

StartChar: braceleft
Encoding: 123 123 91
Width: 12
Flags: W
LayerCount: 2
Fore
SplineSet
8 20 m 25,0,-1
 8 18 l 25,1,-1
 7 18 l 25,2,-1
 6 17 l 1,3,-1
 6 13 l 25,4,-1
 4 11 l 25,5,-1
 6 9 l 1,6,-1
 6 5 l 25,7,-1
 7 4 l 25,8,-1
 8 4 l 1,9,-1
 8 2 l 25,10,-1
 6 2 l 1,11,-1
 4 4 l 25,12,-1
 4 8 l 1,13,-1
 2 10 l 25,14,-1
 2 12 l 25,15,-1
 4 14 l 25,16,-1
 4 18 l 1,17,-1
 6 20 l 25,18,-1
 8 20 l 25,0,-1
EndSplineSet
EndChar

StartChar: bar
Encoding: 124 124 92
Width: 12
Flags: W
LayerCount: 2
Fore
SplineSet
4 24 m 1,0,-1
 6 24 l 1,1,-1
 6 2 l 1,2,-1
 4 2 l 1,3,-1
 4 24 l 1,0,-1
EndSplineSet
EndChar

StartChar: braceright
Encoding: 125 125 93
Width: 12
Flags: W
LayerCount: 2
Fore
SplineSet
2 20 m 25,0,-1
 4 20 l 25,1,-1
 6 18 l 1,2,-1
 6 14 l 25,3,-1
 8 12 l 25,4,-1
 8 10 l 25,5,-1
 6 8 l 1,6,-1
 6 4 l 25,7,-1
 4 2 l 1,8,-1
 2 2 l 25,9,-1
 2 4 l 1,10,-1
 3 4 l 25,11,-1
 4 5 l 25,12,-1
 4 9 l 1,13,-1
 6 11 l 25,14,-1
 4 13 l 25,15,-1
 4 17 l 1,16,-1
 3 18 l 25,17,-1
 2 18 l 25,18,-1
 2 20 l 25,0,-1
EndSplineSet
EndChar

StartChar: asciitilde
Encoding: 126 126 94
Width: 12
Flags: W
LayerCount: 2
Fore
SplineSet
0 12 m 25,0,-1
 2 14 l 25,1,-1
 4 14 l 1,2,-1
 7 10 l 25,3,-1
 9 12 l 25,4,-1
 10 12 l 25,5,-1
 10 10 l 25,6,-1
 8 8 l 25,7,-1
 6 8 l 25,8,-1
 3 12 l 25,9,-1
 1 10 l 25,10,-1
 0 10 l 25,11,-1
 0 12 l 25,0,-1
EndSplineSet
EndChar

StartChar: uni0410
Encoding: 1040 1040 95
Width: 12
Flags: W
LayerCount: 2
Fore
SplineSet
3 12 m 25,0,-1
 7 12 l 25,1,-1
 7 10 l 25,2,-1
 3 10 l 25,3,-1
 3 12 l 25,0,-1
4 20 m 25,4,-1
 6 20 l 25,5,-1
 2 2 l 25,6,-1
 0 2 l 25,7,-1
 4 20 l 25,4,-1
4 20 m 25,8,-1
 6 20 l 25,9,-1
 10 2 l 25,10,-1
 8 2 l 25,11,-1
 4 20 l 25,8,-1
EndSplineSet
EndChar

StartChar: uni0412
Encoding: 1042 1042 96
Width: 12
Flags: W
LayerCount: 2
Fore
SplineSet
7 10 m 25,0,-1
 2 10 l 25,1,-1
 2 4 l 25,2,-1
 7 4 l 25,3,-1
 8 5 l 25,4,-1
 8 9 l 25,5,-1
 7 10 l 25,0,-1
7 18 m 25,6,-1
 2 18 l 25,7,-1
 2 12 l 25,8,-1
 7 12 l 25,9,-1
 8 13 l 25,10,-1
 8 17 l 25,11,-1
 7 18 l 25,6,-1
0 20 m 25,12,-1
 8 20 l 25,13,-1
 10 18 l 25,14,-1
 10 12 l 25,15,-1
 9 11 l 25,16,-1
 10 10 l 25,17,-1
 10 4 l 25,18,-1
 8 2 l 25,19,-1
 0 2 l 25,20,-1
 0 20 l 25,12,-1
EndSplineSet
EndChar

StartChar: uni0421
Encoding: 1057 1057 97
Width: 12
Flags: W
LayerCount: 2
Fore
SplineSet
8 20 m 25,0,-1
 10 18 l 25,1,-1
 10 14 l 25,2,-1
 8 14 l 25,3,-1
 8 17 l 25,4,-1
 7 18 l 25,5,-1
 3 18 l 25,6,-1
 2 17 l 25,7,-1
 2 5 l 25,8,-1
 3 4 l 25,9,-1
 7 4 l 25,10,-1
 8 5 l 25,11,-1
 8 8 l 25,12,-1
 10 8 l 25,13,-1
 10 4 l 25,14,-1
 8 2 l 25,15,-1
 2 2 l 25,16,-1
 0 4 l 25,17,-1
 0 18 l 25,18,-1
 2 20 l 25,19,-1
 8 20 l 25,0,-1
EndSplineSet
EndChar

StartChar: uni0422
Encoding: 1058 1058 98
Width: 12
Flags: W
LayerCount: 2
Fore
SplineSet
0 20 m 25,0,-1
 10 20 l 25,1,-1
 10 18 l 25,2,-1
 6 18 l 25,3,-1
 6 2 l 25,4,-1
 4 2 l 25,5,-1
 4 18 l 25,6,-1
 0 18 l 25,7,-1
 0 20 l 25,0,-1
EndSplineSet
EndChar

StartChar: uni0415
Encoding: 1045 1045 99
Width: 12
Flags: W
LayerCount: 2
Fore
SplineSet
2 18 m 1,0,-1
 2 12 l 1,1,-1
 10 12 l 25,2,-1
 10 10 l 25,3,-1
 2 10 l 1,4,-1
 2 4 l 1,5,-1
 10 4 l 25,6,-1
 10 2 l 25,7,-1
 0 2 l 1,8,-1
 0 20 l 1,9,-1
 10 20 l 25,10,-1
 10 18 l 25,11,-1
 2 18 l 1,0,-1
EndSplineSet
EndChar

StartChar: uni0425
Encoding: 1061 1061 100
Width: 12
Flags: W
LayerCount: 2
Fore
SplineSet
8 20 m 25,0,-1
 10 20 l 25,1,-1
 2 2 l 25,2,-1
 0 2 l 25,3,-1
 8 20 l 25,0,-1
0 20 m 25,4,-1
 2 20 l 25,5,-1
 10 2 l 25,6,-1
 8 2 l 25,7,-1
 0 20 l 25,4,-1
EndSplineSet
EndChar

StartChar: uni0420
Encoding: 1056 1056 101
Width: 12
Flags: W
LayerCount: 2
Fore
SplineSet
7 18 m 25,0,-1
 2 18 l 25,1,-1
 2 12 l 25,2,-1
 7 12 l 25,3,-1
 8 13 l 25,4,-1
 8 17 l 25,5,-1
 7 18 l 25,0,-1
0 20 m 25,6,-1
 8 20 l 25,7,-1
 10 18 l 25,8,-1
 10 12 l 25,9,-1
 8 10 l 25,10,-1
 2 10 l 25,11,-1
 2 2 l 25,12,-1
 0 2 l 25,13,-1
 0 20 l 25,6,-1
EndSplineSet
EndChar

StartChar: uni0423
Encoding: 1059 1059 102
Width: 12
Flags: W
LayerCount: 2
Fore
SplineSet
0 2 m 1,0,-1
 2 2 l 1,1,-1
 10 20 l 1,2,-1
 8 20 l 1,3,-1
 0 2 l 1,0,-1
5.19921875 12 m 17,4,-1
 2 20 l 9,5,-1
 0 20 l 25,6,-1
 4 10 l 25,7,-1
 5.19921875 12 l 17,4,-1
EndSplineSet
EndChar

StartChar: uni0443
Encoding: 1091 1091 103
Width: 12
Flags: W
LayerCount: 2
Fore
SplineSet
0 -6 m 1,0,-1
 2 -6 l 1,1,-1
 10 12 l 1,2,-1
 8 12 l 1,3,-1
 0 -6 l 1,0,-1
5.2001953125 4 m 17,4,-1
 2 12 l 9,5,-1
 0 12 l 25,6,-1
 4 2 l 25,7,-1
 5.2001953125 4 l 17,4,-1
EndSplineSet
EndChar

StartChar: uni0417
Encoding: 1047 1047 104
Width: 12
Flags: W
LayerCount: 2
Fore
SplineSet
2 20 m 25,0,-1
 8 20 l 25,1,-1
 10 18 l 25,2,-1
 10 12 l 25,3,-1
 9 11 l 25,4,-1
 10 10 l 25,5,-1
 10 4 l 25,6,-1
 8 2 l 25,7,-1
 2 2 l 25,8,-1
 0 4 l 25,9,-1
 0 8 l 25,10,-1
 2 8 l 25,11,-1
 2 5 l 25,12,-1
 3 4 l 25,13,-1
 7 4 l 25,14,-1
 8 5 l 25,15,-1
 8 9 l 25,16,-1
 7 10 l 25,17,-1
 4 10 l 25,18,-1
 4 12 l 25,19,-1
 7 12 l 25,20,-1
 8 13 l 25,21,-1
 8 17 l 25,22,-1
 7 18 l 25,23,-1
 3 18 l 25,24,-1
 2 17 l 25,25,-1
 2 14 l 25,26,-1
 0 14 l 25,27,-1
 0 18 l 25,28,-1
 2 20 l 25,0,-1
EndSplineSet
EndChar

StartChar: uni042D
Encoding: 1069 1069 105
Width: 12
Flags: W
LayerCount: 2
Fore
SplineSet
8 10 m 25,0,-1
 4 10 l 1,1,-1
 4 12 l 1,2,-1
 8 12 l 25,3,-1
 8 17 l 25,4,-1
 7 18 l 25,5,-1
 3 18 l 25,6,-1
 2 17 l 25,7,-1
 2 14 l 25,8,-1
 0 14 l 25,9,-1
 0 18 l 25,10,-1
 2 20 l 25,11,-1
 8 20 l 25,12,-1
 10 18 l 1,13,-1
 10 4 l 25,14,-1
 8 2 l 1,15,-1
 2 2 l 25,16,-1
 0 4 l 25,17,-1
 0 8 l 25,18,-1
 2 8 l 25,19,-1
 2 5 l 25,20,-1
 3 4 l 25,21,-1
 7 4 l 25,22,-1
 8 5 l 25,23,-1
 8 10 l 25,0,-1
EndSplineSet
EndChar

StartChar: uni041A
Encoding: 1050 1050 106
Width: 12
Flags: W
LayerCount: 2
Fore
SplineSet
0 20 m 25,0,-1
 2 20 l 25,1,-1
 2 14 l 25,2,-1
 8 20 l 25,3,-1
 10 20 l 25,4,-1
 10 19 l 25,5,-1
 2 11 l 25,6,-1
 10 3 l 25,7,-1
 10 2 l 25,8,-1
 8 2 l 25,9,-1
 2 8 l 25,10,-1
 2 2 l 25,11,-1
 0 2 l 25,12,-1
 0 20 l 25,0,-1
EndSplineSet
EndChar

StartChar: uni041C
Encoding: 1052 1052 107
Width: 12
Flags: W
LayerCount: 2
Fore
SplineSet
8 20 m 29,0,-1
 10 20 l 25,1,-1
 6 2 l 25,2,-1
 4 2 l 25,3,-1
 8 20 l 29,0,-1
0 20 m 25,4,-1
 2 20 l 25,5,-1
 6 2 l 25,6,-1
 4 2 l 25,7,-1
 0 20 l 25,4,-1
8 20 m 25,8,-1
 10 20 l 25,9,-1
 10 2 l 25,10,-1
 8 2 l 25,11,-1
 8 20 l 25,8,-1
0 20 m 25,12,-1
 2 20 l 25,13,-1
 2 2 l 25,14,-1
 0 2 l 25,15,-1
 0 20 l 25,12,-1
EndSplineSet
EndChar

StartChar: uni041E
Encoding: 1054 1054 108
Width: 12
Flags: W
LayerCount: 2
Fore
SplineSet
7 18 m 25,0,-1
 3 18 l 25,1,-1
 2 17 l 25,2,-1
 2 5 l 25,3,-1
 3 4 l 25,4,-1
 7 4 l 25,5,-1
 8 5 l 25,6,-1
 8 17 l 25,7,-1
 7 18 l 25,0,-1
2 20 m 25,8,-1
 8 20 l 25,9,-1
 10 18 l 25,10,-1
 10 4 l 25,11,-1
 8 2 l 25,12,-1
 2 2 l 25,13,-1
 0 4 l 25,14,-1
 0 18 l 25,15,-1
 2 20 l 25,8,-1
EndSplineSet
EndChar

StartChar: uni041D
Encoding: 1053 1053 109
Width: 12
Flags: W
LayerCount: 2
Fore
SplineSet
0 20 m 25,0,-1
 2 20 l 25,1,-1
 2 12 l 25,2,-1
 8 12 l 25,3,-1
 8 20 l 25,4,-1
 10 20 l 25,5,-1
 10 2 l 25,6,-1
 8 2 l 25,7,-1
 8 10 l 25,8,-1
 2 10 l 25,9,-1
 2 2 l 25,10,-1
 0 2 l 25,11,-1
 0 20 l 25,0,-1
EndSplineSet
EndChar

StartChar: uni0430
Encoding: 1072 1072 110
Width: 12
Flags: W
LayerCount: 2
Fore
SplineSet
7 6 m 25,0,-1
 3 6 l 25,1,-1
 2 5 l 25,2,-1
 3 4 l 25,3,-1
 7 4 l 25,4,-1
 8 5 l 25,5,-1
 7 6 l 25,0,-1
0 10 m 25,6,-1
 2 12 l 25,7,-1
 8 12 l 25,8,-1
 10 10 l 25,9,-1
 10 2 l 25,10,-1
 8 2 l 25,11,-1
 8 3 l 25,12,-1
 7 2 l 25,13,-1
 2 2 l 25,14,-1
 0 4 l 25,15,-1
 0 6 l 25,16,-1
 2 8 l 25,17,-1
 7 8 l 25,18,-1
 8 7 l 25,19,-1
 8 9 l 25,20,-1
 7 10 l 25,21,-1
 0 10 l 25,6,-1
EndSplineSet
EndChar

StartChar: uni0435
Encoding: 1077 1077 111
Width: 12
Flags: W
LayerCount: 2
Fore
SplineSet
2 9 m 1,0,-1
 2 8 l 1,1,-1
 8 8 l 1,2,-1
 8 9 l 1,3,-1
 7 10 l 25,4,-1
 3 10 l 25,5,-1
 2 9 l 1,0,-1
10 4 m 1049,6,-1
3 4 m 25,7,-1
 10 4 l 1,8,-1
 8 2 l 25,9,-1
 2 2 l 25,10,-1
 0 4 l 1,11,-1
 0 10 l 25,12,-1
 2 12 l 25,13,-1
 8 12 l 25,14,-1
 10 10 l 1,15,-1
 10 6 l 25,16,-1
 2 6 l 25,17,-1
 2 5 l 25,18,-1
 3 4 l 25,7,-1
EndSplineSet
EndChar

StartChar: uni0442
Encoding: 1090 1090 112
Width: 12
Flags: W
LayerCount: 2
Fore
SplineSet
0 12 m 25,0,-1
 10 12 l 25,1,-1
 10 10 l 25,2,-1
 6 10 l 25,3,-1
 6 2 l 1,4,-1
 4 2 l 1,5,-1
 4 10 l 25,6,-1
 0 10 l 25,7,-1
 0 12 l 25,0,-1
EndSplineSet
EndChar

StartChar: uni043D
Encoding: 1085 1085 113
Width: 12
Flags: W
LayerCount: 2
Fore
SplineSet
0 12 m 25,0,-1
 2 12 l 1,1,-1
 2 8 l 1,2,-1
 8 8 l 1,3,-1
 8 12 l 1,4,-1
 10 12 l 25,5,-1
 10 2 l 1,6,-1
 8 2 l 1,7,-1
 8 6 l 25,8,-1
 2 6 l 25,9,-1
 2 2 l 1,10,-1
 0 2 l 1,11,-1
 0 12 l 25,0,-1
EndSplineSet
EndChar

StartChar: uni043E
Encoding: 1086 1086 114
Width: 12
Flags: W
LayerCount: 2
Fore
SplineSet
7 10 m 25,0,-1
 3 10 l 25,1,-1
 2 9 l 25,2,-1
 2 5 l 1,3,-1
 3 4 l 25,4,-1
 7 4 l 25,5,-1
 8 5 l 1,6,-1
 8 9 l 25,7,-1
 7 10 l 25,0,-1
2 12 m 25,8,-1
 8 12 l 25,9,-1
 10 10 l 25,10,-1
 10 4 l 1,11,-1
 8 2 l 25,12,-1
 2 2 l 25,13,-1
 0 4 l 1,14,-1
 0 10 l 25,15,-1
 2 12 l 25,8,-1
EndSplineSet
EndChar

StartChar: uni0445
Encoding: 1093 1093 115
Width: 12
Flags: W
LayerCount: 2
Fore
SplineSet
8 12 m 25,0,-1
 10 12 l 25,1,-1
 10 11 l 25,2,-1
 2 2 l 25,3,-1
 0 2 l 25,4,-1
 0 3 l 25,5,-1
 8 12 l 25,0,-1
0 12 m 25,6,-1
 2 12 l 25,7,-1
 10 3 l 25,8,-1
 10 2 l 25,9,-1
 8 2 l 25,10,-1
 0 11 l 25,11,-1
 0 12 l 25,6,-1
EndSplineSet
EndChar

StartChar: uni0401
Encoding: 1025 1025 116
Width: 12
Flags: W
LayerCount: 2
Fore
SplineSet
6 24 m 25,0,-1
 8 24 l 25,1,-1
 8 22 l 25,2,-1
 6 22 l 25,3,-1
 6 24 l 25,0,-1
2 24 m 25,4,-1
 4 24 l 25,5,-1
 4 22 l 25,6,-1
 2 22 l 25,7,-1
 2 24 l 25,4,-1
2 18 m 1,8,-1
 2 12 l 1,9,-1
 10 12 l 25,10,-1
 10 10 l 25,11,-1
 2 10 l 1,12,-1
 2 4 l 1,13,-1
 10 4 l 25,14,-1
 10 2 l 25,15,-1
 0 2 l 1,16,-1
 0 20 l 1,17,-1
 10 20 l 25,18,-1
 10 18 l 25,19,-1
 2 18 l 1,8,-1
EndSplineSet
EndChar

StartChar: uni0451
Encoding: 1105 1105 117
Width: 12
Flags: W
LayerCount: 2
Fore
SplineSet
6 16 m 25,0,-1
 8 16 l 25,1,-1
 8 14 l 25,2,-1
 6 14 l 25,3,-1
 6 16 l 25,0,-1
2 16 m 25,4,-1
 4 16 l 25,5,-1
 4 14 l 25,6,-1
 2 14 l 25,7,-1
 2 16 l 25,4,-1
2 9 m 1,8,-1
 2 8 l 1,9,-1
 8 8 l 1,10,-1
 8 9 l 1,11,-1
 7 10 l 25,12,-1
 3 10 l 25,13,-1
 2 9 l 1,8,-1
10 4 m 1049,14,-1
3 4 m 25,15,-1
 10 4 l 1,16,-1
 8 2 l 25,17,-1
 2 2 l 25,18,-1
 0 4 l 1,19,-1
 0 10 l 25,20,-1
 2 12 l 25,21,-1
 8 12 l 25,22,-1
 10 10 l 1,23,-1
 10 6 l 25,24,-1
 2 6 l 25,25,-1
 2 5 l 25,26,-1
 3 4 l 25,15,-1
EndSplineSet
EndChar

StartChar: uni044E
Encoding: 1102 1102 118
Width: 12
Flags: W
LayerCount: 2
Fore
SplineSet
7 10 m 25,0,-1
 6 9 l 25,1,-1
 6 5 l 25,2,-1
 7 4 l 25,3,-1
 8 5 l 25,4,-1
 8 9 l 25,5,-1
 7 10 l 25,0,-1
0 12 m 25,6,-1
 2 12 l 25,7,-1
 2 8 l 25,8,-1
 4 8 l 25,9,-1
 4 10 l 25,10,-1
 6 12 l 25,11,-1
 8 12 l 1,12,-1
 10 10 l 25,13,-1
 10 4 l 25,14,-1
 8 2 l 25,15,-1
 6 2 l 25,16,-1
 4 4 l 25,17,-1
 4 6 l 25,18,-1
 2 6 l 25,19,-1
 2 2 l 25,20,-1
 0 2 l 25,21,-1
 0 12 l 25,6,-1
EndSplineSet
EndChar

StartChar: uni0431
Encoding: 1073 1073 119
Width: 12
Flags: W
LayerCount: 2
Fore
SplineSet
7 10 m 25,0,-1
 3 10 l 25,1,-1
 2 9 l 25,2,-1
 2 5 l 25,3,-1
 3 4 l 25,4,-1
 7 4 l 25,5,-1
 8 5 l 25,6,-1
 8 9 l 25,7,-1
 7 10 l 25,0,-1
9 20 m 25,8,-1
 10 20 l 25,9,-1
 10 18 l 25,10,-1
 8 16 l 25,11,-1
 3 16 l 25,12,-1
 2 15 l 25,13,-1
 2 11 l 25,14,-1
 3 12 l 25,15,-1
 8 12 l 25,16,-1
 10 10 l 25,17,-1
 10 4 l 25,18,-1
 8 2 l 25,19,-1
 2 2 l 25,20,-1
 0 4 l 25,21,-1
 0 16 l 25,22,-1
 2 18 l 25,23,-1
 7 18 l 25,24,-1
 9 20 l 25,8,-1
EndSplineSet
EndChar

StartChar: uni0411
Encoding: 1041 1041 120
Width: 12
Flags: W
LayerCount: 2
Fore
SplineSet
2 10 m 25,0,-1
 2 4 l 25,1,-1
 7 4 l 25,2,-1
 8 5 l 25,3,-1
 8 9 l 25,4,-1
 7 10 l 25,5,-1
 2 10 l 25,0,-1
0 20 m 25,6,-1
 10 20 l 25,7,-1
 10 18 l 25,8,-1
 2 18 l 25,9,-1
 2 12 l 25,10,-1
 8 12 l 25,11,-1
 10 10 l 25,12,-1
 10 4 l 25,13,-1
 8 2 l 25,14,-1
 0 2 l 25,15,-1
 0 20 l 25,6,-1
EndSplineSet
EndChar

StartChar: uni0413
Encoding: 1043 1043 121
Width: 12
Flags: W
LayerCount: 2
Fore
SplineSet
0 20 m 29,0,-1
 10 20 l 25,1,-1
 10 18 l 25,2,-1
 2 18 l 25,3,-1
 2 2 l 25,4,-1
 0 2 l 25,5,-1
 0 20 l 29,0,-1
EndSplineSet
EndChar

StartChar: uni0414
Encoding: 1044 1044 122
Width: 12
Flags: W
LayerCount: 2
Fore
SplineSet
6 18 m 25,0,-1
 5 18 l 25,1,-1
 4 17 l 25,2,-1
 4 4 l 25,3,-1
 6 4 l 25,4,-1
 6 18 l 25,0,-1
4 20 m 25,5,-1
 8 20 l 25,6,-1
 8 4 l 25,7,-1
 10 4 l 25,8,-1
 10 -2 l 25,9,-1
 8 -2 l 25,10,-1
 8 2 l 25,11,-1
 2 2 l 25,12,-1
 2 -2 l 25,13,-1
 0 -2 l 25,14,-1
 0 4 l 25,15,-1
 2 4 l 25,16,-1
 2 18 l 25,17,-1
 4 20 l 25,5,-1
EndSplineSet
EndChar

StartChar: uni0416
Encoding: 1046 1046 123
Width: 12
Flags: W
LayerCount: 2
Fore
SplineSet
4 20 m 25,0,-1
 6 20 l 25,1,-1
 6 2 l 25,2,-1
 4 2 l 25,3,-1
 4 20 l 25,0,-1
8 20 m 25,4,-1
 10 20 l 25,5,-1
 2 2 l 25,6,-1
 0 2 l 25,7,-1
 8 20 l 25,4,-1
0 20 m 25,8,-1
 2 20 l 25,9,-1
 10 2 l 25,10,-1
 8 2 l 25,11,-1
 0 20 l 25,8,-1
EndSplineSet
EndChar

StartChar: uni0436
Encoding: 1078 1078 124
Width: 12
Flags: W
LayerCount: 2
Fore
SplineSet
4 12 m 25,0,-1
 6 12 l 25,1,-1
 6 2 l 25,2,-1
 4 2 l 25,3,-1
 4 12 l 25,0,-1
8 12 m 25,4,-1
 10 12 l 25,5,-1
 10 11 l 25,6,-1
 2 2 l 25,7,-1
 0 2 l 25,8,-1
 0 3 l 25,9,-1
 8 12 l 25,4,-1
0 12 m 25,10,-1
 2 12 l 25,11,-1
 10 3 l 25,12,-1
 10 2 l 25,13,-1
 8 2 l 25,14,-1
 0 11 l 25,15,-1
 0 12 l 25,10,-1
EndSplineSet
EndChar

StartChar: uni0418
Encoding: 1048 1048 125
Width: 12
Flags: W
LayerCount: 2
Fore
SplineSet
8 20 m 25,0,-1
 10 20 l 25,1,-1
 2 2 l 25,2,-1
 0 2 l 25,3,-1
 8 20 l 25,0,-1
8 20 m 25,4,-1
 10 20 l 25,5,-1
 10 2 l 25,6,-1
 8 2 l 25,7,-1
 8 20 l 25,4,-1
0 20 m 25,8,-1
 2 20 l 25,9,-1
 2 2 l 25,10,-1
 0 2 l 25,11,-1
 0 20 l 25,8,-1
EndSplineSet
EndChar

StartChar: uni0419
Encoding: 1049 1049 126
Width: 12
Flags: W
LayerCount: 2
Fore
SplineSet
2 24 m 25,0,-1
 8 24 l 25,1,-1
 8 22 l 25,2,-1
 2 22 l 25,3,-1
 2 24 l 25,0,-1
8 20 m 25,4,-1
 10 20 l 25,5,-1
 2 2 l 25,6,-1
 0 2 l 25,7,-1
 8 20 l 25,4,-1
8 20 m 25,8,-1
 10 20 l 25,9,-1
 10 2 l 25,10,-1
 8 2 l 25,11,-1
 8 20 l 25,8,-1
0 20 m 25,12,-1
 2 20 l 25,13,-1
 2 2 l 25,14,-1
 0 2 l 25,15,-1
 0 20 l 25,12,-1
EndSplineSet
EndChar

StartChar: uni041B
Encoding: 1051 1051 127
Width: 12
Flags: W
LayerCount: 2
Fore
SplineSet
2 20 m 25,0,-1
 10 20 l 25,1,-1
 10 2 l 25,2,-1
 8 2 l 25,3,-1
 8 18 l 25,4,-1
 4 18 l 25,5,-1
 4 4 l 25,6,-1
 2 2 l 25,7,-1
 0 2 l 25,8,-1
 0 3 l 25,9,-1
 2 5 l 25,10,-1
 2 20 l 25,0,-1
EndSplineSet
EndChar

StartChar: uni041F
Encoding: 1055 1055 128
Width: 12
Flags: W
LayerCount: 2
Fore
SplineSet
0 20 m 25,0,-1
 10 20 l 25,1,-1
 10 2 l 25,2,-1
 8 2 l 25,3,-1
 8 18 l 25,4,-1
 2 18 l 25,5,-1
 2 2 l 25,6,-1
 0 2 l 25,7,-1
 0 20 l 25,0,-1
EndSplineSet
EndChar

StartChar: uni043F
Encoding: 1087 1087 129
Width: 12
Flags: W
LayerCount: 2
Fore
SplineSet
0 12 m 25,0,-1
 10 12 l 25,1,-1
 10 2 l 1,2,-1
 8 2 l 1,3,-1
 8 10 l 25,4,-1
 2 10 l 25,5,-1
 2 2 l 1,6,-1
 0 2 l 1,7,-1
 0 12 l 25,0,-1
EndSplineSet
EndChar

StartChar: uni0424
Encoding: 1060 1060 130
Width: 12
Flags: W
LayerCount: 2
Fore
SplineSet
4 24 m 25,0,-1
 6 24 l 25,1,-1
 6 -2 l 25,2,-1
 4 -2 l 25,3,-1
 4 24 l 25,0,-1
7 18 m 25,4,-1
 3 18 l 25,5,-1
 2 17 l 25,6,-1
 2 5 l 25,7,-1
 3 4 l 25,8,-1
 7 4 l 25,9,-1
 8 5 l 25,10,-1
 8 17 l 25,11,-1
 7 18 l 25,4,-1
2 20 m 25,12,-1
 8 20 l 25,13,-1
 10 18 l 25,14,-1
 10 4 l 25,15,-1
 8 2 l 25,16,-1
 2 2 l 25,17,-1
 0 4 l 25,18,-1
 0 18 l 25,19,-1
 2 20 l 25,12,-1
EndSplineSet
EndChar

StartChar: uni0444
Encoding: 1092 1092 131
Width: 12
Flags: W
LayerCount: 2
Fore
SplineSet
4 16 m 25,0,-1
 6 16 l 25,1,-1
 6 -2 l 25,2,-1
 4 -2 l 25,3,-1
 4 16 l 25,0,-1
7 10 m 25,4,-1
 3 10 l 25,5,-1
 2 9 l 25,6,-1
 2 5 l 1,7,-1
 3 4 l 25,8,-1
 7 4 l 25,9,-1
 8 5 l 1,10,-1
 8 9 l 25,11,-1
 7 10 l 25,4,-1
2 12 m 25,12,-1
 8 12 l 25,13,-1
 10 10 l 25,14,-1
 10 4 l 1,15,-1
 8 2 l 25,16,-1
 2 2 l 25,17,-1
 0 4 l 1,18,-1
 0 10 l 25,19,-1
 2 12 l 25,12,-1
EndSplineSet
EndChar

StartChar: uni0426
Encoding: 1062 1062 132
Width: 12
Flags: W
LayerCount: 2
Fore
SplineSet
0 20 m 25,0,-1
 2 20 l 25,1,-1
 2 4 l 25,2,-1
 8 4 l 25,3,-1
 8 20 l 25,4,-1
 10 20 l 25,5,-1
 10 4 l 25,6,-1
 12 4 l 25,7,-1
 12 -2 l 25,8,-1
 10 -2 l 25,9,-1
 10 2 l 25,10,-1
 0 2 l 25,11,-1
 0 20 l 25,0,-1
EndSplineSet
EndChar

StartChar: uni0427
Encoding: 1063 1063 134
Width: 12
Flags: W
LayerCount: 2
Fore
SplineSet
0 20 m 1,0,-1
 2 20 l 1,1,-1
 2 13 l 25,2,-1
 3 12 l 25,3,-1
 7 12 l 25,4,-1
 8 13 l 25,5,-1
 8 20 l 1,6,-1
 10 20 l 25,7,-1
 10 2 l 25,8,-1
 8 2 l 1,9,-1
 8 11 l 25,10,-1
 7 10 l 25,11,-1
 2 10 l 25,12,-1
 0 12 l 25,13,-1
 0 20 l 1,0,-1
EndSplineSet
EndChar

StartChar: uni0428
Encoding: 1064 1064 135
Width: 12
Flags: W
LayerCount: 2
Fore
SplineSet
0 20 m 25,0,-1
 2 20 l 25,1,-1
 2 4 l 25,2,-1
 4 4 l 25,3,-1
 4 20 l 25,4,-1
 6 20 l 25,5,-1
 6 4 l 25,6,-1
 8 4 l 25,7,-1
 8 20 l 25,8,-1
 10 20 l 25,9,-1
 10 2 l 25,10,-1
 0 2 l 25,11,-1
 0 20 l 25,0,-1
EndSplineSet
EndChar

StartChar: uni0429
Encoding: 1065 1065 136
Width: 12
Flags: W
LayerCount: 2
Fore
SplineSet
0 2 m 25,0,-1
 0 20 l 25,1,-1
 2 20 l 25,2,-1
 2 4 l 25,3,-1
 4 4 l 25,4,-1
 4 20 l 25,5,-1
 6 20 l 25,6,-1
 6 4 l 25,7,-1
 8 4 l 25,8,-1
 8 20 l 25,9,-1
 10 20 l 25,10,-1
 10 4 l 25,11,-1
 12 4 l 25,12,-1
 12 -2 l 25,13,-1
 10 -2 l 25,14,-1
 10 2 l 25,15,-1
 0 2 l 25,0,-1
EndSplineSet
EndChar

StartChar: uni042A
Encoding: 1066 1066 137
Width: 12
Flags: W
LayerCount: 2
Fore
SplineSet
7 10 m 25,0,-1
 4 10 l 25,1,-1
 4 4 l 25,2,-1
 7 4 l 1,3,-1
 8 5 l 25,4,-1
 8 9 l 25,5,-1
 7 10 l 25,0,-1
0 20 m 25,6,-1
 4 20 l 1,7,-1
 4 12 l 25,8,-1
 8 12 l 25,9,-1
 10 10 l 25,10,-1
 10 4 l 25,11,-1
 8 2 l 25,12,-1
 2 2 l 25,13,-1
 2 18 l 25,14,-1
 0 18 l 25,15,-1
 0 20 l 25,6,-1
EndSplineSet
EndChar

StartChar: uni042B
Encoding: 1067 1067 138
Width: 12
Flags: W
LayerCount: 2
Fore
SplineSet
3 10 m 25,0,-1
 2 10 l 25,1,-1
 2 4 l 25,2,-1
 3 4 l 25,3,-1
 4 5 l 25,4,-1
 4 9 l 25,5,-1
 3 10 l 25,0,-1
8 20 m 25,6,-1
 10 20 l 25,7,-1
 10 2 l 25,8,-1
 8 2 l 25,9,-1
 8 20 l 25,6,-1
0 20 m 25,10,-1
 2 20 l 25,11,-1
 2 12 l 25,12,-1
 4 12 l 25,13,-1
 6 10 l 25,14,-1
 6 4 l 25,15,-1
 4 2 l 25,16,-1
 0 2 l 25,17,-1
 0 20 l 25,10,-1
EndSplineSet
EndChar

StartChar: uni042C
Encoding: 1068 1068 139
Width: 12
Flags: W
LayerCount: 2
Fore
SplineSet
7 10 m 25,0,-1
 2 10 l 1,1,-1
 2 4 l 1,2,-1
 7 4 l 25,3,-1
 8 5 l 25,4,-1
 8 9 l 25,5,-1
 7 10 l 25,0,-1
0 20 m 25,6,-1
 2 20 l 25,7,-1
 2 12 l 1,8,-1
 8 12 l 25,9,-1
 10 10 l 25,10,-1
 10 4 l 25,11,-1
 8 2 l 25,12,-1
 0 2 l 1,13,-1
 0 20 l 25,6,-1
EndSplineSet
EndChar

StartChar: uni042E
Encoding: 1070 1070 140
Width: 12
Flags: W
LayerCount: 2
Fore
SplineSet
7 18 m 25,0,-1
 6 17 l 25,1,-1
 6 5 l 1,2,-1
 7 4 l 25,3,-1
 8 5 l 1,4,-1
 8 17 l 25,5,-1
 7 18 l 25,0,-1
0 20 m 1,6,-1
 2 20 l 1,7,-1
 2 12 l 1,8,-1
 4 12 l 1,9,-1
 4 18 l 1,10,-1
 6 20 l 25,11,-1
 8 20 l 1,12,-1
 10 18 l 25,13,-1
 10 4 l 1,14,-1
 8 2 l 25,15,-1
 6 2 l 25,16,-1
 4 4 l 1,17,-1
 4 10 l 25,18,-1
 2 10 l 25,19,-1
 2 2 l 1,20,-1
 0 2 l 1,21,-1
 0 20 l 1,6,-1
EndSplineSet
EndChar

StartChar: uni042F
Encoding: 1071 1071 141
Width: 12
Flags: W
LayerCount: 2
Fore
SplineSet
3 18 m 25,0,-1
 2 17 l 25,1,-1
 2 13 l 25,2,-1
 3 12 l 25,3,-1
 8 12 l 25,4,-1
 8 18 l 25,5,-1
 3 18 l 25,0,-1
10 2 m 25,6,-1
 8 2 l 25,7,-1
 8 8 l 25,8,-1
 2 2 l 25,9,-1
 0 2 l 25,10,-1
 0 3 l 25,11,-1
 7 10 l 25,12,-1
 2 10 l 25,13,-1
 0 12 l 25,14,-1
 0 18 l 25,15,-1
 2 20 l 25,16,-1
 10 20 l 25,17,-1
 10 2 l 25,6,-1
EndSplineSet
EndChar

StartChar: uni0437
Encoding: 1079 1079 142
Width: 12
Flags: W
LayerCount: 2
Fore
SplineSet
8 5 m 25,0,-1
 7 6 l 25,1,-1
 4 6 l 25,2,-1
 4 8 l 25,3,-1
 7 8 l 25,4,-1
 8 9 l 25,5,-1
 7 10 l 25,6,-1
 3 10 l 25,7,-1
 2 9 l 1,8,-1
 2 8 l 25,9,-1
 0 8 l 25,10,-1
 0 10 l 1,11,-1
 2 12 l 25,12,-1
 8 12 l 25,13,-1
 10 10 l 1,14,-1
 10 8 l 1,15,-1
 9 7 l 25,16,-1
 10 6 l 25,17,-1
 10 4 l 1,18,-1
 8 2 l 25,19,-1
 2 2 l 25,20,-1
 0 4 l 1,21,-1
 0 6 l 1,22,-1
 2 6 l 25,23,-1
 2 5 l 1,24,-1
 3 4 l 25,25,-1
 7 4 l 25,26,-1
 8 5 l 25,0,-1
EndSplineSet
EndChar

StartChar: uni0438
Encoding: 1080 1080 143
Width: 12
Flags: W
LayerCount: 2
Fore
SplineSet
8 12 m 25,0,-1
 10 11 l 25,1,-1
 2 2 l 25,2,-1
 0 3 l 25,3,-1
 8 12 l 25,0,-1
8 12 m 25,4,-1
 10 12 l 25,5,-1
 10 2 l 25,6,-1
 8 2 l 25,7,-1
 8 12 l 25,4,-1
0 12 m 25,8,-1
 2 12 l 25,9,-1
 2 2 l 25,10,-1
 0 2 l 25,11,-1
 0 12 l 25,8,-1
EndSplineSet
EndChar

StartChar: uni0439
Encoding: 1081 1081 144
Width: 12
Flags: W
LayerCount: 2
Fore
SplineSet
2 16 m 25,0,-1
 8 16 l 25,1,-1
 8 14 l 25,2,-1
 2 14 l 25,3,-1
 2 16 l 25,0,-1
8 12 m 25,4,-1
 10 11 l 25,5,-1
 2 2 l 25,6,-1
 0 3 l 25,7,-1
 8 12 l 25,4,-1
8 12 m 25,8,-1
 10 12 l 25,9,-1
 10 2 l 25,10,-1
 8 2 l 25,11,-1
 8 12 l 25,8,-1
0 12 m 25,12,-1
 2 12 l 25,13,-1
 2 2 l 25,14,-1
 0 2 l 25,15,-1
 0 12 l 25,12,-1
EndSplineSet
EndChar

StartChar: uni043C
Encoding: 1084 1084 145
Width: 12
Flags: W
LayerCount: 2
Fore
SplineSet
8 12 m 25,0,-1
 10 12 l 25,1,-1
 10 2 l 25,2,-1
 8 2 l 25,3,-1
 8 12 l 25,0,-1
0 12 m 25,4,-1
 2 12 l 25,5,-1
 2 2 l 25,6,-1
 0 2 l 25,7,-1
 0 12 l 25,4,-1
4 2 m 1,8,-1
 8 12 l 25,9,-1
 10 12 l 1,10,-1
 6 2 l 25,11,-1
 4 2 l 1,8,-1
4 2 m 25,12,-1
 0 12 l 25,13,-1
 2 12 l 25,14,-1
 6 2 l 25,15,-1
 4 2 l 25,12,-1
EndSplineSet
EndChar

StartChar: uni0432
Encoding: 1074 1074 146
Width: 12
Flags: W
LayerCount: 2
Fore
SplineSet
8 5 m 25,0,-1
 7 6 l 25,1,-1
 2 6 l 25,2,-1
 2 4 l 1,3,-1
 7 4 l 25,4,-1
 8 5 l 25,0,-1
7 10 m 25,5,-1
 2 10 l 25,6,-1
 2 8 l 1,7,-1
 7 8 l 25,8,-1
 8 9 l 25,9,-1
 7 10 l 25,5,-1
0 12 m 25,10,-1
 8 12 l 25,11,-1
 10 10 l 25,12,-1
 10 8 l 1,13,-1
 9 7 l 25,14,-1
 10 6 l 25,15,-1
 10 4 l 1,16,-1
 8 2 l 25,17,-1
 0 2 l 1,18,-1
 0 12 l 25,10,-1
EndSplineSet
EndChar

StartChar: uni0433
Encoding: 1075 1075 147
Width: 12
Flags: W
LayerCount: 2
Fore
SplineSet
0 12 m 25,0,-1
 10 12 l 25,1,-1
 10 10 l 25,2,-1
 2 10 l 25,3,-1
 2 2 l 1,4,-1
 0 2 l 1,5,-1
 0 12 l 25,0,-1
EndSplineSet
EndChar

StartChar: uni0434
Encoding: 1076 1076 148
Width: 12
Flags: W
LayerCount: 2
Fore
SplineSet
6 10 m 29,0,-1
 5 10 l 29,1,-1
 4 9 l 29,2,-1
 4 4 l 1,3,-1
 6 4 l 1,4,-1
 6 10 l 29,0,-1
4 12 m 29,5,-1
 8 12 l 29,6,-1
 8 4 l 1,7,-1
 10 4 l 25,8,-1
 10 -2 l 25,9,-1
 8 -2 l 25,10,-1
 8 2 l 25,11,-1
 2 2 l 25,12,-1
 2 -2 l 25,13,-1
 0 -2 l 25,14,-1
 0 4 l 25,15,-1
 2 4 l 1,16,-1
 2 10 l 29,17,-1
 4 12 l 29,5,-1
EndSplineSet
EndChar

StartChar: uni043A
Encoding: 1082 1082 149
Width: 12
Flags: W
LayerCount: 2
Fore
SplineSet
0 2 m 1,0,-1
 0 12 l 17,1,-1
 2 12 l 1,2,-1
 2 9 l 1,3,-1
 8 12 l 1,4,-1
 10 12 l 25,5,-1
 10 11 l 9,6,-1
 2 7 l 25,7,-1
 10 3 l 1,8,-1
 10 2 l 25,9,-1
 8 2 l 1,10,-1
 2 5 l 9,11,-1
 2 2 l 25,12,-1
 0 2 l 1,0,-1
EndSplineSet
EndChar

StartChar: uni043B
Encoding: 1083 1083 150
Width: 12
Flags: W
LayerCount: 2
Fore
SplineSet
4 4 m 17,0,-1
 2 2 l 25,1,-1
 0 2 l 25,2,-1
 0 3 l 25,3,-1
 2 5 l 9,4,-1
 2 10 l 25,5,-1
 4 12 l 25,6,-1
 10 12 l 25,7,-1
 10 2 l 1,8,-1
 8 2 l 1,9,-1
 8 10 l 25,10,-1
 5 10 l 25,11,-1
 4 9 l 25,12,-1
 4 4 l 17,0,-1
EndSplineSet
EndChar

StartChar: uni0440
Encoding: 1088 1088 151
Width: 12
Flags: W
LayerCount: 2
Fore
SplineSet
7 4 m 25,0,-1
 3 4 l 25,1,-1
 2 5 l 25,2,-1
 2 9 l 25,3,-1
 3 10 l 25,4,-1
 7 10 l 25,5,-1
 8 9 l 25,6,-1
 8 5 l 25,7,-1
 7 4 l 25,0,-1
0 -6 m 25,8,-1
 2 -6 l 25,9,-1
 2 3 l 25,10,-1
 3 2 l 25,11,-1
 8 2 l 25,12,-1
 10 4 l 25,13,-1
 10 10 l 25,14,-1
 8 12 l 25,15,-1
 3 12 l 25,16,-1
 2 11 l 25,17,-1
 2 12 l 25,18,-1
 0 12 l 25,19,-1
 0 -6 l 25,8,-1
EndSplineSet
EndChar

StartChar: uni0441
Encoding: 1089 1089 152
Width: 12
Flags: W
LayerCount: 2
Fore
SplineSet
8 12 m 25,0,-1
 10 10 l 1,1,-1
 10 8 l 25,2,-1
 8 8 l 25,3,-1
 8 9 l 1,4,-1
 7 10 l 25,5,-1
 3 10 l 25,6,-1
 2 9 l 25,7,-1
 2 5 l 1,8,-1
 3 4 l 25,9,-1
 7 4 l 25,10,-1
 8 5 l 1,11,-1
 8 6 l 25,12,-1
 10 6 l 25,13,-1
 10 4 l 1,14,-1
 8 2 l 25,15,-1
 2 2 l 25,16,-1
 0 4 l 1,17,-1
 0 10 l 25,18,-1
 2 12 l 25,19,-1
 8 12 l 25,0,-1
EndSplineSet
EndChar

StartChar: uni0446
Encoding: 1094 1094 153
Width: 12
Flags: W
LayerCount: 2
Fore
SplineSet
0 12 m 25,0,-1
 2 12 l 25,1,-1
 2 4 l 1,2,-1
 8 4 l 1,3,-1
 8 12 l 25,4,-1
 10 12 l 25,5,-1
 10 4 l 1,6,-1
 12 4 l 25,7,-1
 12 -2 l 25,8,-1
 10 -2 l 25,9,-1
 10 2 l 25,10,-1
 0 2 l 1,11,-1
 0 12 l 25,0,-1
EndSplineSet
EndChar

StartChar: uni0447
Encoding: 1095 1095 154
Width: 12
Flags: W
LayerCount: 2
Fore
SplineSet
0 12 m 1,0,-1
 2 12 l 1,1,-1
 2 9 l 1,2,-1
 3 8 l 25,3,-1
 7 8 l 25,4,-1
 8 9 l 1,5,-1
 8 12 l 1,6,-1
 10 12 l 25,7,-1
 10 2 l 1,8,-1
 8 2 l 1,9,-1
 8 7 l 25,10,-1
 7 6 l 25,11,-1
 2 6 l 25,12,-1
 0 8 l 1,13,-1
 0 12 l 1,0,-1
EndSplineSet
EndChar

StartChar: uni0448
Encoding: 1096 1096 155
Width: 12
Flags: W
LayerCount: 2
Fore
SplineSet
0 12 m 25,0,-1
 2 12 l 25,1,-1
 2 4 l 1,2,-1
 4 4 l 1,3,-1
 4 12 l 25,4,-1
 6 12 l 25,5,-1
 6 4 l 1,6,-1
 8 4 l 1,7,-1
 8 12 l 25,8,-1
 10 12 l 25,9,-1
 10 2 l 1,10,-1
 0 2 l 1,11,-1
 0 12 l 25,0,-1
EndSplineSet
EndChar

StartChar: uni0449
Encoding: 1097 1097 156
Width: 12
Flags: W
LayerCount: 2
Fore
SplineSet
0 2 m 1,0,-1
 0 12 l 25,1,-1
 2 12 l 25,2,-1
 2 4 l 1,3,-1
 4 4 l 1,4,-1
 4 12 l 25,5,-1
 6 12 l 25,6,-1
 6 4 l 1,7,-1
 8 4 l 1,8,-1
 8 12 l 25,9,-1
 10 12 l 25,10,-1
 10 4 l 1,11,-1
 12 4 l 25,12,-1
 12 -2 l 25,13,-1
 10 -2 l 25,14,-1
 10 2 l 25,15,-1
 0 2 l 1,0,-1
EndSplineSet
EndChar

StartChar: uni044A
Encoding: 1098 1098 157
Width: 12
Flags: W
LayerCount: 2
Fore
SplineSet
7 6 m 25,0,-1
 4 6 l 25,1,-1
 4 4 l 1,2,-1
 7 4 l 1,3,-1
 8 5 l 25,4,-1
 7 6 l 25,0,-1
0 12 m 25,5,-1
 4 12 l 1,6,-1
 4 8 l 1,7,-1
 8 8 l 25,8,-1
 10 6 l 25,9,-1
 10 4 l 1,10,-1
 8 2 l 25,11,-1
 2 2 l 1,12,-1
 2 10 l 25,13,-1
 0 10 l 25,14,-1
 0 12 l 25,5,-1
EndSplineSet
EndChar

StartChar: uni044B
Encoding: 1099 1099 158
Width: 12
Flags: W
LayerCount: 2
Fore
SplineSet
3 6 m 25,0,-1
 2 6 l 25,1,-1
 2 4 l 1,2,-1
 3 4 l 25,3,-1
 4 5 l 25,4,-1
 3 6 l 25,0,-1
8 12 m 25,5,-1
 10 12 l 25,6,-1
 10 2 l 1,7,-1
 8 2 l 1,8,-1
 8 12 l 25,5,-1
0 12 m 25,9,-1
 2 12 l 25,10,-1
 2 8 l 1,11,-1
 4 8 l 25,12,-1
 6 6 l 25,13,-1
 6 4 l 1,14,-1
 4 2 l 25,15,-1
 0 2 l 1,16,-1
 0 12 l 25,9,-1
EndSplineSet
EndChar

StartChar: uni044C
Encoding: 1100 1100 159
Width: 12
Flags: W
LayerCount: 2
Fore
SplineSet
7 6 m 25,0,-1
 2 6 l 1,1,-1
 2 4 l 1,2,-1
 7 4 l 25,3,-1
 8 5 l 9,4,-1
 7 6 l 25,0,-1
0 12 m 25,5,-1
 2 12 l 1,6,-1
 2 8 l 1,7,-1
 8 8 l 25,8,-1
 10 6 l 25,9,-1
 10 4 l 1,10,-1
 8 2 l 25,11,-1
 0 2 l 1,12,-1
 0 12 l 25,5,-1
EndSplineSet
EndChar

StartChar: uni044D
Encoding: 1101 1101 160
Width: 12
Flags: W
LayerCount: 2
Fore
SplineSet
8 6 m 25,0,-1
 4 6 l 1,1,-1
 4 8 l 1,2,-1
 8 8 l 1,3,-1
 8 9 l 25,4,-1
 7 10 l 25,5,-1
 3 10 l 25,6,-1
 2 9 l 1,7,-1
 2 8 l 25,8,-1
 0 8 l 25,9,-1
 0 10 l 1,10,-1
 2 12 l 25,11,-1
 8 12 l 25,12,-1
 10 10 l 1,13,-1
 10 4 l 1,14,-1
 8 2 l 1,15,-1
 2 2 l 25,16,-1
 0 4 l 1,17,-1
 0 6 l 25,18,-1
 2 6 l 25,19,-1
 2 5 l 1,20,-1
 3 4 l 25,21,-1
 7 4 l 25,22,-1
 8 5 l 1,23,-1
 8 6 l 25,0,-1
EndSplineSet
EndChar

StartChar: uni044F
Encoding: 1103 1103 161
Width: 12
Flags: W
LayerCount: 2
Fore
SplineSet
2 9 m 25,0,-1
 3 8 l 25,1,-1
 8 8 l 1,2,-1
 8 10 l 25,3,-1
 3 10 l 25,4,-1
 2 9 l 25,0,-1
10 2 m 1,5,-1
 8 2 l 1,6,-1
 8 5 l 25,7,-1
 2 2 l 1,8,-1
 0 2 l 25,9,-1
 0 3 l 1,10,-1
 6 6 l 25,11,-1
 2 6 l 1,12,-1
 0 8 l 1,13,-1
 0 10 l 25,14,-1
 2 12 l 25,15,-1
 10 12 l 25,16,-1
 10 2 l 1,5,-1
EndSplineSet
EndChar

StartChar: uni2116
Encoding: 8470 8470 162
Width: 12
Flags: W
LayerCount: 2
Fore
SplineSet
8 11 m 25,0,-1
 12 11 l 25,1,-1
 12 10 l 25,2,-1
 8 10 l 25,3,-1
 8 11 l 25,0,-1
11 19 m 25,4,-1
 9 19 l 25,5,-1
 9 13 l 25,6,-1
 11 13 l 25,7,-1
 11 19 l 25,4,-1
9 20 m 25,8,-1
 11 20 l 25,9,-1
 12 19 l 25,10,-1
 12 13 l 25,11,-1
 11 12 l 25,12,-1
 9 12 l 25,13,-1
 8 13 l 25,14,-1
 8 19 l 25,15,-1
 9 20 l 25,8,-1
0 20 m 25,16,-1
 2 20 l 25,17,-1
 6 2 l 25,18,-1
 4 2 l 25,19,-1
 0 20 l 25,16,-1
4 20 m 25,20,-1
 6 20 l 25,21,-1
 6 2 l 25,22,-1
 4 2 l 25,23,-1
 4 20 l 25,20,-1
0 20 m 25,24,-1
 2 20 l 25,25,-1
 2 2 l 25,26,-1
 0 2 l 25,27,-1
 0 20 l 25,24,-1
EndSplineSet
EndChar

StartChar: uni00AD
Encoding: 173 173 163
Width: 12
Flags: W
LayerCount: 2
Fore
SplineSet
0 12 m 29,0,-1
 10 12 l 29,1,-1
 10 10 l 29,2,-1
 0 10 l 29,3,-1
 0 12 l 29,0,-1
EndSplineSet
EndChar
